<?xml version="1.0" encoding="utf-8" standalone="no"?>
<!DOCTYPE svg PUBLIC "-//W3C//DTD SVG 1.1//EN"
  "http://www.w3.org/Graphics/SVG/1.1/DTD/svg11.dtd">
<svg xmlns:xlink="http://www.w3.org/1999/xlink" width="712.8pt" height="352.8pt" viewBox="0 0 712.8 352.8" xmlns="http://www.w3.org/2000/svg" version="1.1">
 <metadata>
  <rdf:RDF xmlns:dc="http://purl.org/dc/elements/1.1/" xmlns:cc="http://creativecommons.org/ns#" xmlns:rdf="http://www.w3.org/1999/02/22-rdf-syntax-ns#">
   <cc:Work>
    <dc:type rdf:resource="http://purl.org/dc/dcmitype/StillImage"/>
    <dc:date>2026-04-21T22:42:06.412161</dc:date>
    <dc:format>image/svg+xml</dc:format>
    <dc:creator>
     <cc:Agent>
      <dc:title>Matplotlib v3.10.8, https://matplotlib.org/</dc:title>
     </cc:Agent>
    </dc:creator>
   </cc:Work>
  </rdf:RDF>
 </metadata>
 <defs>
  <style type="text/css">*{stroke-linejoin: round; stroke-linecap: butt}</style>
 </defs>
 <g id="figure_1">
  <g id="patch_1">
   <path d="M 0 352.8 
L 712.8 352.8 
L 712.8 0 
L 0 0 
z
" style="fill: #ffffff"/>
  </g>
  <g id="axes_1">
   <g id="patch_2">
    <path d="M 35.136 175.0464 
L 188.784 175.0464 
Q 194.3712 175.0464 194.3712 169.632 
L 194.3712 101.952 
Q 194.3712 96.5376 188.784 96.5376 
L 35.136 96.5376 
Q 29.5488 96.5376 29.5488 101.952 
L 29.5488 169.632 
Q 29.5488 175.0464 35.136 175.0464 
z
" clip-path="url(#pd4a2252f03)" style="fill: #e8f0fe; stroke: #1a73e8; stroke-width: 1.5; stroke-linejoin: miter"/>
   </g>
   <g id="patch_3">
    <path d="M 279.576 175.0464 
L 433.224 175.0464 
Q 438.8112 175.0464 438.8112 169.632 
L 438.8112 101.952 
Q 438.8112 96.5376 433.224 96.5376 
L 279.576 96.5376 
Q 273.9888 96.5376 273.9888 101.952 
L 273.9888 169.632 
Q 273.9888 175.0464 279.576 175.0464 
z
" clip-path="url(#pd4a2252f03)" style="fill: #e8f0fe; stroke: #1a73e8; stroke-width: 1.5; stroke-linejoin: miter"/>
   </g>
   <g id="patch_4">
    <path d="M 524.016 175.0464 
L 677.664 175.0464 
Q 683.2512 175.0464 683.2512 169.632 
L 683.2512 101.952 
Q 683.2512 96.5376 677.664 96.5376 
L 524.016 96.5376 
Q 518.4288 96.5376 518.4288 101.952 
L 518.4288 169.632 
Q 518.4288 175.0464 524.016 175.0464 
z
" clip-path="url(#pd4a2252f03)" style="fill: #e8f0fe; stroke: #1a73e8; stroke-width: 1.5; stroke-linejoin: miter"/>
   </g>
   <g id="patch_5">
    <path d="M 216.72 313.7904 
L 496.08 313.7904 
Q 501.6672 313.7904 501.6672 308.376 
L 501.6672 250.848 
Q 501.6672 245.4336 496.08 245.4336 
L 216.72 245.4336 
Q 211.1328 245.4336 211.1328 250.848 
L 211.1328 308.376 
Q 211.1328 313.7904 216.72 313.7904 
z
" clip-path="url(#pd4a2252f03)" style="fill: #fff5e6; stroke: #f9ab00; stroke-width: 1.5; stroke-linejoin: miter"/>
   </g>
   <g id="text_1">
    <!-- V2.5 differential-protection probabilistic composite -->
    <g transform="translate(167.533359 34.272) scale(0.13 -0.13)">
     <defs>
      <path id="DejaVuSans-Bold-56" d="M 31 4666 
L 1241 4666 
L 2478 1222 
L 3713 4666 
L 4922 4666 
L 3194 0 
L 1759 0 
L 31 4666 
z
" transform="scale(0.015625)"/>
      <path id="DejaVuSans-Bold-32" d="M 1844 884 
L 3897 884 
L 3897 0 
L 506 0 
L 506 884 
L 2209 2388 
Q 2438 2594 2547 2791 
Q 2656 2988 2656 3200 
Q 2656 3528 2436 3728 
Q 2216 3928 1850 3928 
Q 1569 3928 1234 3808 
Q 900 3688 519 3450 
L 519 4475 
Q 925 4609 1322 4679 
Q 1719 4750 2100 4750 
Q 2938 4750 3402 4381 
Q 3866 4013 3866 3353 
Q 3866 2972 3669 2642 
Q 3472 2313 2841 1759 
L 1844 884 
z
" transform="scale(0.015625)"/>
      <path id="DejaVuSans-Bold-2e" d="M 653 1209 
L 1778 1209 
L 1778 0 
L 653 0 
L 653 1209 
z
" transform="scale(0.015625)"/>
      <path id="DejaVuSans-Bold-35" d="M 678 4666 
L 3669 4666 
L 3669 3781 
L 1638 3781 
L 1638 3059 
Q 1775 3097 1914 3117 
Q 2053 3138 2203 3138 
Q 3056 3138 3531 2711 
Q 4006 2284 4006 1522 
Q 4006 766 3489 337 
Q 2972 -91 2053 -91 
Q 1656 -91 1267 -14 
Q 878 63 494 219 
L 494 1166 
Q 875 947 1217 837 
Q 1559 728 1863 728 
Q 2300 728 2551 942 
Q 2803 1156 2803 1522 
Q 2803 1891 2551 2103 
Q 2300 2316 1863 2316 
Q 1603 2316 1309 2248 
Q 1016 2181 678 2041 
L 678 4666 
z
" transform="scale(0.015625)"/>
      <path id="DejaVuSans-Bold-20" transform="scale(0.015625)"/>
      <path id="DejaVuSans-Bold-64" d="M 2919 2988 
L 2919 4863 
L 4044 4863 
L 4044 0 
L 2919 0 
L 2919 506 
Q 2688 197 2409 53 
Q 2131 -91 1766 -91 
Q 1119 -91 703 423 
Q 288 938 288 1747 
Q 288 2556 703 3070 
Q 1119 3584 1766 3584 
Q 2128 3584 2408 3439 
Q 2688 3294 2919 2988 
z
M 2181 722 
Q 2541 722 2730 984 
Q 2919 1247 2919 1747 
Q 2919 2247 2730 2509 
Q 2541 2772 2181 2772 
Q 1825 2772 1636 2509 
Q 1447 2247 1447 1747 
Q 1447 1247 1636 984 
Q 1825 722 2181 722 
z
" transform="scale(0.015625)"/>
      <path id="DejaVuSans-Bold-69" d="M 538 3500 
L 1656 3500 
L 1656 0 
L 538 0 
L 538 3500 
z
M 538 4863 
L 1656 4863 
L 1656 3950 
L 538 3950 
L 538 4863 
z
" transform="scale(0.015625)"/>
      <path id="DejaVuSans-Bold-66" d="M 2841 4863 
L 2841 4128 
L 2222 4128 
Q 1984 4128 1890 4042 
Q 1797 3956 1797 3744 
L 1797 3500 
L 2753 3500 
L 2753 2700 
L 1797 2700 
L 1797 0 
L 678 0 
L 678 2700 
L 122 2700 
L 122 3500 
L 678 3500 
L 678 3744 
Q 678 4316 997 4589 
Q 1316 4863 1984 4863 
L 2841 4863 
z
" transform="scale(0.015625)"/>
      <path id="DejaVuSans-Bold-65" d="M 4031 1759 
L 4031 1441 
L 1416 1441 
Q 1456 1047 1700 850 
Q 1944 653 2381 653 
Q 2734 653 3104 758 
Q 3475 863 3866 1075 
L 3866 213 
Q 3469 63 3072 -14 
Q 2675 -91 2278 -91 
Q 1328 -91 801 392 
Q 275 875 275 1747 
Q 275 2603 792 3093 
Q 1309 3584 2216 3584 
Q 3041 3584 3536 3087 
Q 4031 2591 4031 1759 
z
M 2881 2131 
Q 2881 2450 2695 2645 
Q 2509 2841 2209 2841 
Q 1884 2841 1681 2658 
Q 1478 2475 1428 2131 
L 2881 2131 
z
" transform="scale(0.015625)"/>
      <path id="DejaVuSans-Bold-72" d="M 3138 2547 
Q 2991 2616 2845 2648 
Q 2700 2681 2553 2681 
Q 2122 2681 1889 2404 
Q 1656 2128 1656 1613 
L 1656 0 
L 538 0 
L 538 3500 
L 1656 3500 
L 1656 2925 
Q 1872 3269 2151 3426 
Q 2431 3584 2822 3584 
Q 2878 3584 2943 3579 
Q 3009 3575 3134 3559 
L 3138 2547 
z
" transform="scale(0.015625)"/>
      <path id="DejaVuSans-Bold-6e" d="M 4056 2131 
L 4056 0 
L 2931 0 
L 2931 347 
L 2931 1631 
Q 2931 2084 2911 2256 
Q 2891 2428 2841 2509 
Q 2775 2619 2662 2680 
Q 2550 2741 2406 2741 
Q 2056 2741 1856 2470 
Q 1656 2200 1656 1722 
L 1656 0 
L 538 0 
L 538 3500 
L 1656 3500 
L 1656 2988 
Q 1909 3294 2193 3439 
Q 2478 3584 2822 3584 
Q 3428 3584 3742 3212 
Q 4056 2841 4056 2131 
z
" transform="scale(0.015625)"/>
      <path id="DejaVuSans-Bold-74" d="M 1759 4494 
L 1759 3500 
L 2913 3500 
L 2913 2700 
L 1759 2700 
L 1759 1216 
Q 1759 972 1856 886 
Q 1953 800 2241 800 
L 2816 800 
L 2816 0 
L 1856 0 
Q 1194 0 917 276 
Q 641 553 641 1216 
L 641 2700 
L 84 2700 
L 84 3500 
L 641 3500 
L 641 4494 
L 1759 4494 
z
" transform="scale(0.015625)"/>
      <path id="DejaVuSans-Bold-61" d="M 2106 1575 
Q 1756 1575 1579 1456 
Q 1403 1338 1403 1106 
Q 1403 894 1545 773 
Q 1688 653 1941 653 
Q 2256 653 2472 879 
Q 2688 1106 2688 1447 
L 2688 1575 
L 2106 1575 
z
M 3816 1997 
L 3816 0 
L 2688 0 
L 2688 519 
Q 2463 200 2181 54 
Q 1900 -91 1497 -91 
Q 953 -91 614 226 
Q 275 544 275 1050 
Q 275 1666 698 1953 
Q 1122 2241 2028 2241 
L 2688 2241 
L 2688 2328 
Q 2688 2594 2478 2717 
Q 2269 2841 1825 2841 
Q 1466 2841 1156 2769 
Q 847 2697 581 2553 
L 581 3406 
Q 941 3494 1303 3539 
Q 1666 3584 2028 3584 
Q 2975 3584 3395 3211 
Q 3816 2838 3816 1997 
z
" transform="scale(0.015625)"/>
      <path id="DejaVuSans-Bold-6c" d="M 538 4863 
L 1656 4863 
L 1656 0 
L 538 0 
L 538 4863 
z
" transform="scale(0.015625)"/>
      <path id="DejaVuSans-Bold-2d" d="M 347 2297 
L 2309 2297 
L 2309 1388 
L 347 1388 
L 347 2297 
z
" transform="scale(0.015625)"/>
      <path id="DejaVuSans-Bold-70" d="M 1656 506 
L 1656 -1331 
L 538 -1331 
L 538 3500 
L 1656 3500 
L 1656 2988 
Q 1888 3294 2169 3439 
Q 2450 3584 2816 3584 
Q 3463 3584 3878 3070 
Q 4294 2556 4294 1747 
Q 4294 938 3878 423 
Q 3463 -91 2816 -91 
Q 2450 -91 2169 54 
Q 1888 200 1656 506 
z
M 2400 2772 
Q 2041 2772 1848 2508 
Q 1656 2244 1656 1747 
Q 1656 1250 1848 986 
Q 2041 722 2400 722 
Q 2759 722 2948 984 
Q 3138 1247 3138 1747 
Q 3138 2247 2948 2509 
Q 2759 2772 2400 2772 
z
" transform="scale(0.015625)"/>
      <path id="DejaVuSans-Bold-6f" d="M 2203 2784 
Q 1831 2784 1636 2517 
Q 1441 2250 1441 1747 
Q 1441 1244 1636 976 
Q 1831 709 2203 709 
Q 2569 709 2762 976 
Q 2956 1244 2956 1747 
Q 2956 2250 2762 2517 
Q 2569 2784 2203 2784 
z
M 2203 3584 
Q 3106 3584 3614 3096 
Q 4122 2609 4122 1747 
Q 4122 884 3614 396 
Q 3106 -91 2203 -91 
Q 1297 -91 786 396 
Q 275 884 275 1747 
Q 275 2609 786 3096 
Q 1297 3584 2203 3584 
z
" transform="scale(0.015625)"/>
      <path id="DejaVuSans-Bold-63" d="M 3366 3391 
L 3366 2478 
Q 3138 2634 2908 2709 
Q 2678 2784 2431 2784 
Q 1963 2784 1702 2511 
Q 1441 2238 1441 1747 
Q 1441 1256 1702 982 
Q 1963 709 2431 709 
Q 2694 709 2930 787 
Q 3166 866 3366 1019 
L 3366 103 
Q 3103 6 2833 -42 
Q 2563 -91 2291 -91 
Q 1344 -91 809 395 
Q 275 881 275 1747 
Q 275 2613 809 3098 
Q 1344 3584 2291 3584 
Q 2566 3584 2833 3536 
Q 3100 3488 3366 3391 
z
" transform="scale(0.015625)"/>
      <path id="DejaVuSans-Bold-62" d="M 2400 722 
Q 2759 722 2948 984 
Q 3138 1247 3138 1747 
Q 3138 2247 2948 2509 
Q 2759 2772 2400 2772 
Q 2041 2772 1848 2508 
Q 1656 2244 1656 1747 
Q 1656 1250 1848 986 
Q 2041 722 2400 722 
z
M 1656 2988 
Q 1888 3294 2169 3439 
Q 2450 3584 2816 3584 
Q 3463 3584 3878 3070 
Q 4294 2556 4294 1747 
Q 4294 938 3878 423 
Q 3463 -91 2816 -91 
Q 2450 -91 2169 54 
Q 1888 200 1656 506 
L 1656 0 
L 538 0 
L 538 4863 
L 1656 4863 
L 1656 2988 
z
" transform="scale(0.015625)"/>
      <path id="DejaVuSans-Bold-73" d="M 3272 3391 
L 3272 2541 
Q 2913 2691 2578 2766 
Q 2244 2841 1947 2841 
Q 1628 2841 1473 2761 
Q 1319 2681 1319 2516 
Q 1319 2381 1436 2309 
Q 1553 2238 1856 2203 
L 2053 2175 
Q 2913 2066 3209 1816 
Q 3506 1566 3506 1031 
Q 3506 472 3093 190 
Q 2681 -91 1863 -91 
Q 1516 -91 1145 -36 
Q 775 19 384 128 
L 384 978 
Q 719 816 1070 734 
Q 1422 653 1784 653 
Q 2113 653 2278 743 
Q 2444 834 2444 1013 
Q 2444 1163 2330 1236 
Q 2216 1309 1875 1350 
L 1678 1375 
Q 931 1469 631 1722 
Q 331 1975 331 2491 
Q 331 3047 712 3315 
Q 1094 3584 1881 3584 
Q 2191 3584 2531 3537 
Q 2872 3491 3272 3391 
z
" transform="scale(0.015625)"/>
      <path id="DejaVuSans-Bold-6d" d="M 3781 2919 
Q 3994 3244 4286 3414 
Q 4578 3584 4928 3584 
Q 5531 3584 5847 3212 
Q 6163 2841 6163 2131 
L 6163 0 
L 5038 0 
L 5038 1825 
Q 5041 1866 5042 1909 
Q 5044 1953 5044 2034 
Q 5044 2406 4934 2573 
Q 4825 2741 4581 2741 
Q 4263 2741 4089 2478 
Q 3916 2216 3909 1719 
L 3909 0 
L 2784 0 
L 2784 1825 
Q 2784 2406 2684 2573 
Q 2584 2741 2328 2741 
Q 2006 2741 1831 2477 
Q 1656 2213 1656 1722 
L 1656 0 
L 531 0 
L 531 3500 
L 1656 3500 
L 1656 2988 
Q 1863 3284 2130 3434 
Q 2397 3584 2719 3584 
Q 3081 3584 3359 3409 
Q 3638 3234 3781 2919 
z
" transform="scale(0.015625)"/>
     </defs>
     <use xlink:href="#DejaVuSans-Bold-56"/>
     <use xlink:href="#DejaVuSans-Bold-32" transform="translate(77.392578 0)"/>
     <use xlink:href="#DejaVuSans-Bold-2e" transform="translate(146.972656 0)"/>
     <use xlink:href="#DejaVuSans-Bold-35" transform="translate(184.960938 0)"/>
     <use xlink:href="#DejaVuSans-Bold-20" transform="translate(254.541016 0)"/>
     <use xlink:href="#DejaVuSans-Bold-64" transform="translate(289.355469 0)"/>
     <use xlink:href="#DejaVuSans-Bold-69" transform="translate(360.9375 0)"/>
     <use xlink:href="#DejaVuSans-Bold-66" transform="translate(395.214844 0)"/>
     <use xlink:href="#DejaVuSans-Bold-66" transform="translate(438.720703 0)"/>
     <use xlink:href="#DejaVuSans-Bold-65" transform="translate(482.226562 0)"/>
     <use xlink:href="#DejaVuSans-Bold-72" transform="translate(550.048828 0)"/>
     <use xlink:href="#DejaVuSans-Bold-65" transform="translate(599.365234 0)"/>
     <use xlink:href="#DejaVuSans-Bold-6e" transform="translate(667.1875 0)"/>
     <use xlink:href="#DejaVuSans-Bold-74" transform="translate(738.378906 0)"/>
     <use xlink:href="#DejaVuSans-Bold-69" transform="translate(786.181641 0)"/>
     <use xlink:href="#DejaVuSans-Bold-61" transform="translate(820.458984 0)"/>
     <use xlink:href="#DejaVuSans-Bold-6c" transform="translate(887.939453 0)"/>
     <use xlink:href="#DejaVuSans-Bold-2d" transform="translate(922.216797 0)"/>
     <use xlink:href="#DejaVuSans-Bold-70" transform="translate(963.720703 0)"/>
     <use xlink:href="#DejaVuSans-Bold-72" transform="translate(1035.302734 0)"/>
     <use xlink:href="#DejaVuSans-Bold-6f" transform="translate(1084.619141 0)"/>
     <use xlink:href="#DejaVuSans-Bold-74" transform="translate(1153.320312 0)"/>
     <use xlink:href="#DejaVuSans-Bold-65" transform="translate(1201.123047 0)"/>
     <use xlink:href="#DejaVuSans-Bold-63" transform="translate(1268.945312 0)"/>
     <use xlink:href="#DejaVuSans-Bold-74" transform="translate(1328.222656 0)"/>
     <use xlink:href="#DejaVuSans-Bold-69" transform="translate(1376.025391 0)"/>
     <use xlink:href="#DejaVuSans-Bold-6f" transform="translate(1410.302734 0)"/>
     <use xlink:href="#DejaVuSans-Bold-6e" transform="translate(1479.003906 0)"/>
     <use xlink:href="#DejaVuSans-Bold-20" transform="translate(1550.195312 0)"/>
     <use xlink:href="#DejaVuSans-Bold-70" transform="translate(1585.009766 0)"/>
     <use xlink:href="#DejaVuSans-Bold-72" transform="translate(1656.591797 0)"/>
     <use xlink:href="#DejaVuSans-Bold-6f" transform="translate(1705.908203 0)"/>
     <use xlink:href="#DejaVuSans-Bold-62" transform="translate(1774.609375 0)"/>
     <use xlink:href="#DejaVuSans-Bold-61" transform="translate(1846.191406 0)"/>
     <use xlink:href="#DejaVuSans-Bold-62" transform="translate(1913.671875 0)"/>
     <use xlink:href="#DejaVuSans-Bold-69" transform="translate(1985.253906 0)"/>
     <use xlink:href="#DejaVuSans-Bold-6c" transform="translate(2019.53125 0)"/>
     <use xlink:href="#DejaVuSans-Bold-69" transform="translate(2053.808594 0)"/>
     <use xlink:href="#DejaVuSans-Bold-73" transform="translate(2088.085938 0)"/>
     <use xlink:href="#DejaVuSans-Bold-74" transform="translate(2147.607422 0)"/>
     <use xlink:href="#DejaVuSans-Bold-69" transform="translate(2195.410156 0)"/>
     <use xlink:href="#DejaVuSans-Bold-63" transform="translate(2229.6875 0)"/>
     <use xlink:href="#DejaVuSans-Bold-20" transform="translate(2288.964844 0)"/>
     <use xlink:href="#DejaVuSans-Bold-63" transform="translate(2323.779297 0)"/>
     <use xlink:href="#DejaVuSans-Bold-6f" transform="translate(2383.056641 0)"/>
     <use xlink:href="#DejaVuSans-Bold-6d" transform="translate(2451.757812 0)"/>
     <use xlink:href="#DejaVuSans-Bold-70" transform="translate(2555.957031 0)"/>
     <use xlink:href="#DejaVuSans-Bold-6f" transform="translate(2627.539062 0)"/>
     <use xlink:href="#DejaVuSans-Bold-73" transform="translate(2696.240234 0)"/>
     <use xlink:href="#DejaVuSans-Bold-69" transform="translate(2755.761719 0)"/>
     <use xlink:href="#DejaVuSans-Bold-74" transform="translate(2790.039062 0)"/>
     <use xlink:href="#DejaVuSans-Bold-65" transform="translate(2837.841797 0)"/>
    </g>
   </g>
   <g id="text_2">
    <!-- p_targ -->
    <g transform="translate(90.286875 125.2335) scale(0.12 -0.12)">
     <defs>
      <path id="DejaVuSansMono-Bold-70" d="M 1381 494 
L 1381 -1331 
L 469 -1331 
L 469 3500 
L 1381 3500 
L 1381 2975 
Q 1525 3278 1759 3431 
Q 1994 3584 2309 3584 
Q 2909 3584 3240 3103 
Q 3572 2622 3572 1747 
Q 3572 859 3236 384 
Q 2900 -91 2278 -91 
Q 1997 -91 1773 54 
Q 1550 200 1381 494 
z
M 2656 1753 
Q 2656 2259 2487 2546 
Q 2319 2834 2022 2834 
Q 1725 2834 1553 2546 
Q 1381 2259 1381 1753 
Q 1381 1247 1553 959 
Q 1725 672 2022 672 
Q 2319 672 2487 959 
Q 2656 1247 2656 1753 
z
" transform="scale(0.015625)"/>
      <path id="DejaVuSansMono-Bold-5f" d="M 3853 -916 
L 3853 -1509 
L 0 -1509 
L 0 -916 
L 3853 -916 
z
" transform="scale(0.015625)"/>
      <path id="DejaVuSansMono-Bold-74" d="M 2156 4494 
L 2156 3500 
L 3353 3500 
L 3353 2797 
L 2156 2797 
L 2156 1141 
Q 2156 906 2270 804 
Q 2384 703 2650 703 
L 3353 703 
L 3353 0 
L 2584 0 
Q 1797 0 1519 251 
Q 1241 503 1241 1184 
L 1241 2797 
L 347 2797 
L 347 3500 
L 1241 3500 
L 1241 4494 
L 2156 4494 
z
" transform="scale(0.015625)"/>
      <path id="DejaVuSansMono-Bold-61" d="M 2188 1644 
Q 1675 1644 1472 1512 
Q 1269 1381 1269 1063 
Q 1269 825 1409 684 
Q 1550 544 1791 544 
Q 2153 544 2353 817 
Q 2553 1091 2553 1581 
L 2553 1644 
L 2188 1644 
z
M 3463 1997 
L 3463 0 
L 2553 0 
L 2553 391 
Q 2388 159 2128 34 
Q 1869 -91 1556 -91 
Q 959 -91 626 225 
Q 294 541 294 1106 
Q 294 1719 691 2011 
Q 1088 2303 1919 2303 
L 2553 2303 
L 2553 2456 
Q 2553 2678 2392 2792 
Q 2231 2906 1919 2906 
Q 1591 2906 1283 2823 
Q 975 2741 641 2559 
L 641 3341 
Q 944 3466 1256 3525 
Q 1569 3584 1919 3584 
Q 2772 3584 3117 3237 
Q 3463 2891 3463 1997 
z
" transform="scale(0.015625)"/>
      <path id="DejaVuSansMono-Bold-72" d="M 3597 2534 
Q 3447 2672 3245 2740 
Q 3044 2809 2803 2809 
Q 2513 2809 2295 2707 
Q 2078 2606 1959 2413 
Q 1884 2294 1854 2125 
Q 1825 1956 1825 1613 
L 1825 0 
L 909 0 
L 909 3500 
L 1825 3500 
L 1825 2956 
Q 1959 3256 2237 3420 
Q 2516 3584 2888 3584 
Q 3075 3584 3254 3539 
Q 3434 3494 3597 3406 
L 3597 2534 
z
" transform="scale(0.015625)"/>
      <path id="DejaVuSansMono-Bold-67" d="M 2509 1806 
Q 2509 2275 2331 2558 
Q 2153 2841 1863 2841 
Q 1575 2841 1398 2559 
Q 1222 2278 1222 1806 
Q 1222 1331 1398 1050 
Q 1575 769 1863 769 
Q 2153 769 2331 1051 
Q 2509 1334 2509 1806 
z
M 3425 263 
Q 3425 -578 3045 -951 
Q 2666 -1325 1813 -1325 
Q 1525 -1325 1244 -1283 
Q 963 -1241 672 -1153 
L 672 -313 
Q 931 -456 1200 -525 
Q 1469 -594 1753 -594 
Q 2141 -594 2325 -411 
Q 2509 -228 2509 159 
L 2509 538 
Q 2375 288 2153 166 
Q 1931 44 1613 44 
Q 1013 44 659 512 
Q 306 981 306 1784 
Q 306 2616 659 3103 
Q 1013 3591 1606 3591 
Q 1906 3591 2140 3450 
Q 2375 3309 2509 3053 
L 2509 3500 
L 3425 3500 
L 3425 263 
z
" transform="scale(0.015625)"/>
     </defs>
     <use xlink:href="#DejaVuSansMono-Bold-70"/>
     <use xlink:href="#DejaVuSansMono-Bold-5f" transform="translate(60.205078 0)"/>
     <use xlink:href="#DejaVuSansMono-Bold-74" transform="translate(120.410156 0)"/>
     <use xlink:href="#DejaVuSansMono-Bold-61" transform="translate(180.615234 0)"/>
     <use xlink:href="#DejaVuSansMono-Bold-72" transform="translate(240.820312 0)"/>
     <use xlink:href="#DejaVuSansMono-Bold-67" transform="translate(301.025391 0)"/>
    </g>
   </g>
   <g id="text_3">
    <!-- P(β_tumor &lt; 0.30) -->
    <g transform="translate(72.671406 150.206758) scale(0.085 -0.085)">
     <defs>
      <path id="DejaVuSans-50" d="M 1259 4147 
L 1259 2394 
L 2053 2394 
Q 2494 2394 2734 2622 
Q 2975 2850 2975 3272 
Q 2975 3691 2734 3919 
Q 2494 4147 2053 4147 
L 1259 4147 
z
M 628 4666 
L 2053 4666 
Q 2838 4666 3239 4311 
Q 3641 3956 3641 3272 
Q 3641 2581 3239 2228 
Q 2838 1875 2053 1875 
L 1259 1875 
L 1259 0 
L 628 0 
L 628 4666 
z
" transform="scale(0.015625)"/>
      <path id="DejaVuSans-28" d="M 1984 4856 
Q 1566 4138 1362 3434 
Q 1159 2731 1159 2009 
Q 1159 1288 1364 580 
Q 1569 -128 1984 -844 
L 1484 -844 
Q 1016 -109 783 600 
Q 550 1309 550 2009 
Q 550 2706 781 3412 
Q 1013 4119 1484 4856 
L 1984 4856 
z
" transform="scale(0.015625)"/>
      <path id="DejaVuSans-3b2" d="M 1178 216 
L 1178 -1331 
L 600 -1331 
L 600 3478 
Q 600 4903 1931 4903 
Q 3288 4903 3288 3700 
Q 3288 2844 2750 2531 
Q 3625 2250 3625 1416 
Q 3625 -66 2119 -66 
Q 1456 -66 1178 216 
z
M 1178 966 
Q 1525 425 2141 425 
Q 3041 425 3041 1406 
Q 3041 2288 1591 2219 
L 1591 2750 
Q 2725 2750 2725 3750 
Q 2725 4434 1994 4434 
Q 1178 4434 1178 3459 
L 1178 966 
z
" transform="scale(0.015625)"/>
      <path id="DejaVuSans-5f" d="M 3263 -1063 
L 3263 -1509 
L -63 -1509 
L -63 -1063 
L 3263 -1063 
z
" transform="scale(0.015625)"/>
      <path id="DejaVuSans-74" d="M 1172 4494 
L 1172 3500 
L 2356 3500 
L 2356 3053 
L 1172 3053 
L 1172 1153 
Q 1172 725 1289 603 
Q 1406 481 1766 481 
L 2356 481 
L 2356 0 
L 1766 0 
Q 1100 0 847 248 
Q 594 497 594 1153 
L 594 3053 
L 172 3053 
L 172 3500 
L 594 3500 
L 594 4494 
L 1172 4494 
z
" transform="scale(0.015625)"/>
      <path id="DejaVuSans-75" d="M 544 1381 
L 544 3500 
L 1119 3500 
L 1119 1403 
Q 1119 906 1312 657 
Q 1506 409 1894 409 
Q 2359 409 2629 706 
Q 2900 1003 2900 1516 
L 2900 3500 
L 3475 3500 
L 3475 0 
L 2900 0 
L 2900 538 
Q 2691 219 2414 64 
Q 2138 -91 1772 -91 
Q 1169 -91 856 284 
Q 544 659 544 1381 
z
M 1991 3584 
L 1991 3584 
z
" transform="scale(0.015625)"/>
      <path id="DejaVuSans-6d" d="M 3328 2828 
Q 3544 3216 3844 3400 
Q 4144 3584 4550 3584 
Q 5097 3584 5394 3201 
Q 5691 2819 5691 2113 
L 5691 0 
L 5113 0 
L 5113 2094 
Q 5113 2597 4934 2840 
Q 4756 3084 4391 3084 
Q 3944 3084 3684 2787 
Q 3425 2491 3425 1978 
L 3425 0 
L 2847 0 
L 2847 2094 
Q 2847 2600 2669 2842 
Q 2491 3084 2119 3084 
Q 1678 3084 1418 2786 
Q 1159 2488 1159 1978 
L 1159 0 
L 581 0 
L 581 3500 
L 1159 3500 
L 1159 2956 
Q 1356 3278 1631 3431 
Q 1906 3584 2284 3584 
Q 2666 3584 2933 3390 
Q 3200 3197 3328 2828 
z
" transform="scale(0.015625)"/>
      <path id="DejaVuSans-6f" d="M 1959 3097 
Q 1497 3097 1228 2736 
Q 959 2375 959 1747 
Q 959 1119 1226 758 
Q 1494 397 1959 397 
Q 2419 397 2687 759 
Q 2956 1122 2956 1747 
Q 2956 2369 2687 2733 
Q 2419 3097 1959 3097 
z
M 1959 3584 
Q 2709 3584 3137 3096 
Q 3566 2609 3566 1747 
Q 3566 888 3137 398 
Q 2709 -91 1959 -91 
Q 1206 -91 779 398 
Q 353 888 353 1747 
Q 353 2609 779 3096 
Q 1206 3584 1959 3584 
z
" transform="scale(0.015625)"/>
      <path id="DejaVuSans-72" d="M 2631 2963 
Q 2534 3019 2420 3045 
Q 2306 3072 2169 3072 
Q 1681 3072 1420 2755 
Q 1159 2438 1159 1844 
L 1159 0 
L 581 0 
L 581 3500 
L 1159 3500 
L 1159 2956 
Q 1341 3275 1631 3429 
Q 1922 3584 2338 3584 
Q 2397 3584 2469 3576 
Q 2541 3569 2628 3553 
L 2631 2963 
z
" transform="scale(0.015625)"/>
      <path id="DejaVuSans-20" transform="scale(0.015625)"/>
      <path id="DejaVuSans-3c" d="M 4684 3150 
L 1459 2003 
L 4684 863 
L 4684 294 
L 678 1747 
L 678 2266 
L 4684 3719 
L 4684 3150 
z
" transform="scale(0.015625)"/>
      <path id="DejaVuSans-30" d="M 2034 4250 
Q 1547 4250 1301 3770 
Q 1056 3291 1056 2328 
Q 1056 1369 1301 889 
Q 1547 409 2034 409 
Q 2525 409 2770 889 
Q 3016 1369 3016 2328 
Q 3016 3291 2770 3770 
Q 2525 4250 2034 4250 
z
M 2034 4750 
Q 2819 4750 3233 4129 
Q 3647 3509 3647 2328 
Q 3647 1150 3233 529 
Q 2819 -91 2034 -91 
Q 1250 -91 836 529 
Q 422 1150 422 2328 
Q 422 3509 836 4129 
Q 1250 4750 2034 4750 
z
" transform="scale(0.015625)"/>
      <path id="DejaVuSans-2e" d="M 684 794 
L 1344 794 
L 1344 0 
L 684 0 
L 684 794 
z
" transform="scale(0.015625)"/>
      <path id="DejaVuSans-33" d="M 2597 2516 
Q 3050 2419 3304 2112 
Q 3559 1806 3559 1356 
Q 3559 666 3084 287 
Q 2609 -91 1734 -91 
Q 1441 -91 1130 -33 
Q 819 25 488 141 
L 488 750 
Q 750 597 1062 519 
Q 1375 441 1716 441 
Q 2309 441 2620 675 
Q 2931 909 2931 1356 
Q 2931 1769 2642 2001 
Q 2353 2234 1838 2234 
L 1294 2234 
L 1294 2753 
L 1863 2753 
Q 2328 2753 2575 2939 
Q 2822 3125 2822 3475 
Q 2822 3834 2567 4026 
Q 2313 4219 1838 4219 
Q 1578 4219 1281 4162 
Q 984 4106 628 3988 
L 628 4550 
Q 988 4650 1302 4700 
Q 1616 4750 1894 4750 
Q 2613 4750 3031 4423 
Q 3450 4097 3450 3541 
Q 3450 3153 3228 2886 
Q 3006 2619 2597 2516 
z
" transform="scale(0.015625)"/>
      <path id="DejaVuSans-29" d="M 513 4856 
L 1013 4856 
Q 1481 4119 1714 3412 
Q 1947 2706 1947 2009 
Q 1947 1309 1714 600 
Q 1481 -109 1013 -844 
L 513 -844 
Q 928 -128 1133 580 
Q 1338 1288 1338 2009 
Q 1338 2731 1133 3434 
Q 928 4138 513 4856 
z
" transform="scale(0.015625)"/>
     </defs>
     <use xlink:href="#DejaVuSans-50"/>
     <use xlink:href="#DejaVuSans-28" transform="translate(60.302734 0)"/>
     <use xlink:href="#DejaVuSans-3b2" transform="translate(99.316406 0)"/>
     <use xlink:href="#DejaVuSans-5f" transform="translate(163.134766 0)"/>
     <use xlink:href="#DejaVuSans-74" transform="translate(213.134766 0)"/>
     <use xlink:href="#DejaVuSans-75" transform="translate(252.34375 0)"/>
     <use xlink:href="#DejaVuSans-6d" transform="translate(315.722656 0)"/>
     <use xlink:href="#DejaVuSans-6f" transform="translate(413.134766 0)"/>
     <use xlink:href="#DejaVuSans-72" transform="translate(474.316406 0)"/>
     <use xlink:href="#DejaVuSans-20" transform="translate(515.429688 0)"/>
     <use xlink:href="#DejaVuSans-3c" transform="translate(547.216797 0)"/>
     <use xlink:href="#DejaVuSans-20" transform="translate(631.005859 0)"/>
     <use xlink:href="#DejaVuSans-30" transform="translate(662.792969 0)"/>
     <use xlink:href="#DejaVuSans-2e" transform="translate(726.416016 0)"/>
     <use xlink:href="#DejaVuSans-33" transform="translate(758.203125 0)"/>
     <use xlink:href="#DejaVuSans-30" transform="translate(821.826172 0)"/>
     <use xlink:href="#DejaVuSans-29" transform="translate(885.449219 0)"/>
    </g>
    <!-- (method-of-moments Beta) -->
    <g transform="translate(54.000625 159.961305) scale(0.085 -0.085)">
     <defs>
      <path id="DejaVuSans-65" d="M 3597 1894 
L 3597 1613 
L 953 1613 
Q 991 1019 1311 708 
Q 1631 397 2203 397 
Q 2534 397 2845 478 
Q 3156 559 3463 722 
L 3463 178 
Q 3153 47 2828 -22 
Q 2503 -91 2169 -91 
Q 1331 -91 842 396 
Q 353 884 353 1716 
Q 353 2575 817 3079 
Q 1281 3584 2069 3584 
Q 2775 3584 3186 3129 
Q 3597 2675 3597 1894 
z
M 3022 2063 
Q 3016 2534 2758 2815 
Q 2500 3097 2075 3097 
Q 1594 3097 1305 2825 
Q 1016 2553 972 2059 
L 3022 2063 
z
" transform="scale(0.015625)"/>
      <path id="DejaVuSans-68" d="M 3513 2113 
L 3513 0 
L 2938 0 
L 2938 2094 
Q 2938 2591 2744 2837 
Q 2550 3084 2163 3084 
Q 1697 3084 1428 2787 
Q 1159 2491 1159 1978 
L 1159 0 
L 581 0 
L 581 4863 
L 1159 4863 
L 1159 2956 
Q 1366 3272 1645 3428 
Q 1925 3584 2291 3584 
Q 2894 3584 3203 3211 
Q 3513 2838 3513 2113 
z
" transform="scale(0.015625)"/>
      <path id="DejaVuSans-64" d="M 2906 2969 
L 2906 4863 
L 3481 4863 
L 3481 0 
L 2906 0 
L 2906 525 
Q 2725 213 2448 61 
Q 2172 -91 1784 -91 
Q 1150 -91 751 415 
Q 353 922 353 1747 
Q 353 2572 751 3078 
Q 1150 3584 1784 3584 
Q 2172 3584 2448 3432 
Q 2725 3281 2906 2969 
z
M 947 1747 
Q 947 1113 1208 752 
Q 1469 391 1925 391 
Q 2381 391 2643 752 
Q 2906 1113 2906 1747 
Q 2906 2381 2643 2742 
Q 2381 3103 1925 3103 
Q 1469 3103 1208 2742 
Q 947 2381 947 1747 
z
" transform="scale(0.015625)"/>
      <path id="DejaVuSans-2d" d="M 313 2009 
L 1997 2009 
L 1997 1497 
L 313 1497 
L 313 2009 
z
" transform="scale(0.015625)"/>
      <path id="DejaVuSans-66" d="M 2375 4863 
L 2375 4384 
L 1825 4384 
Q 1516 4384 1395 4259 
Q 1275 4134 1275 3809 
L 1275 3500 
L 2222 3500 
L 2222 3053 
L 1275 3053 
L 1275 0 
L 697 0 
L 697 3053 
L 147 3053 
L 147 3500 
L 697 3500 
L 697 3744 
Q 697 4328 969 4595 
Q 1241 4863 1831 4863 
L 2375 4863 
z
" transform="scale(0.015625)"/>
      <path id="DejaVuSans-6e" d="M 3513 2113 
L 3513 0 
L 2938 0 
L 2938 2094 
Q 2938 2591 2744 2837 
Q 2550 3084 2163 3084 
Q 1697 3084 1428 2787 
Q 1159 2491 1159 1978 
L 1159 0 
L 581 0 
L 581 3500 
L 1159 3500 
L 1159 2956 
Q 1366 3272 1645 3428 
Q 1925 3584 2291 3584 
Q 2894 3584 3203 3211 
Q 3513 2838 3513 2113 
z
" transform="scale(0.015625)"/>
      <path id="DejaVuSans-73" d="M 2834 3397 
L 2834 2853 
Q 2591 2978 2328 3040 
Q 2066 3103 1784 3103 
Q 1356 3103 1142 2972 
Q 928 2841 928 2578 
Q 928 2378 1081 2264 
Q 1234 2150 1697 2047 
L 1894 2003 
Q 2506 1872 2764 1633 
Q 3022 1394 3022 966 
Q 3022 478 2636 193 
Q 2250 -91 1575 -91 
Q 1294 -91 989 -36 
Q 684 19 347 128 
L 347 722 
Q 666 556 975 473 
Q 1284 391 1588 391 
Q 1994 391 2212 530 
Q 2431 669 2431 922 
Q 2431 1156 2273 1281 
Q 2116 1406 1581 1522 
L 1381 1569 
Q 847 1681 609 1914 
Q 372 2147 372 2553 
Q 372 3047 722 3315 
Q 1072 3584 1716 3584 
Q 2034 3584 2315 3537 
Q 2597 3491 2834 3397 
z
" transform="scale(0.015625)"/>
      <path id="DejaVuSans-42" d="M 1259 2228 
L 1259 519 
L 2272 519 
Q 2781 519 3026 730 
Q 3272 941 3272 1375 
Q 3272 1813 3026 2020 
Q 2781 2228 2272 2228 
L 1259 2228 
z
M 1259 4147 
L 1259 2741 
L 2194 2741 
Q 2656 2741 2882 2914 
Q 3109 3088 3109 3444 
Q 3109 3797 2882 3972 
Q 2656 4147 2194 4147 
L 1259 4147 
z
M 628 4666 
L 2241 4666 
Q 2963 4666 3353 4366 
Q 3744 4066 3744 3513 
Q 3744 3084 3544 2831 
Q 3344 2578 2956 2516 
Q 3422 2416 3680 2098 
Q 3938 1781 3938 1306 
Q 3938 681 3513 340 
Q 3088 0 2303 0 
L 628 0 
L 628 4666 
z
" transform="scale(0.015625)"/>
      <path id="DejaVuSans-61" d="M 2194 1759 
Q 1497 1759 1228 1600 
Q 959 1441 959 1056 
Q 959 750 1161 570 
Q 1363 391 1709 391 
Q 2188 391 2477 730 
Q 2766 1069 2766 1631 
L 2766 1759 
L 2194 1759 
z
M 3341 1997 
L 3341 0 
L 2766 0 
L 2766 531 
Q 2569 213 2275 61 
Q 1981 -91 1556 -91 
Q 1019 -91 701 211 
Q 384 513 384 1019 
Q 384 1609 779 1909 
Q 1175 2209 1959 2209 
L 2766 2209 
L 2766 2266 
Q 2766 2663 2505 2880 
Q 2244 3097 1772 3097 
Q 1472 3097 1187 3025 
Q 903 2953 641 2809 
L 641 3341 
Q 956 3463 1253 3523 
Q 1550 3584 1831 3584 
Q 2591 3584 2966 3190 
Q 3341 2797 3341 1997 
z
" transform="scale(0.015625)"/>
     </defs>
     <use xlink:href="#DejaVuSans-28"/>
     <use xlink:href="#DejaVuSans-6d" transform="translate(39.013672 0)"/>
     <use xlink:href="#DejaVuSans-65" transform="translate(136.425781 0)"/>
     <use xlink:href="#DejaVuSans-74" transform="translate(197.949219 0)"/>
     <use xlink:href="#DejaVuSans-68" transform="translate(237.158203 0)"/>
     <use xlink:href="#DejaVuSans-6f" transform="translate(300.537109 0)"/>
     <use xlink:href="#DejaVuSans-64" transform="translate(361.71875 0)"/>
     <use xlink:href="#DejaVuSans-2d" transform="translate(425.195312 0)"/>
     <use xlink:href="#DejaVuSans-6f" transform="translate(463.154297 0)"/>
     <use xlink:href="#DejaVuSans-66" transform="translate(524.335938 0)"/>
     <use xlink:href="#DejaVuSans-2d" transform="translate(554.041016 0)"/>
     <use xlink:href="#DejaVuSans-6d" transform="translate(590.125 0)"/>
     <use xlink:href="#DejaVuSans-6f" transform="translate(687.537109 0)"/>
     <use xlink:href="#DejaVuSans-6d" transform="translate(748.71875 0)"/>
     <use xlink:href="#DejaVuSans-65" transform="translate(846.130859 0)"/>
     <use xlink:href="#DejaVuSans-6e" transform="translate(907.654297 0)"/>
     <use xlink:href="#DejaVuSans-74" transform="translate(971.033203 0)"/>
     <use xlink:href="#DejaVuSans-73" transform="translate(1010.242188 0)"/>
     <use xlink:href="#DejaVuSans-20" transform="translate(1062.341797 0)"/>
     <use xlink:href="#DejaVuSans-42" transform="translate(1094.128906 0)"/>
     <use xlink:href="#DejaVuSans-65" transform="translate(1162.732422 0)"/>
     <use xlink:href="#DejaVuSans-74" transform="translate(1224.255859 0)"/>
     <use xlink:href="#DejaVuSans-61" transform="translate(1263.464844 0)"/>
     <use xlink:href="#DejaVuSans-29" transform="translate(1324.744141 0)"/>
    </g>
   </g>
   <g id="text_4">
    <!-- p_diff -->
    <g transform="translate(334.726875 125.719125) scale(0.12 -0.12)">
     <defs>
      <path id="DejaVuSansMono-Bold-64" d="M 2472 3003 
L 2472 4863 
L 3384 4863 
L 3384 0 
L 2472 0 
L 2472 519 
Q 2325 216 2092 62 
Q 1859 -91 1544 -91 
Q 944 -91 612 390 
Q 281 872 281 1747 
Q 281 2634 617 3109 
Q 953 3584 1575 3584 
Q 1856 3584 2079 3439 
Q 2303 3294 2472 3003 
z
M 1197 1741 
Q 1197 1234 1365 946 
Q 1534 659 1831 659 
Q 2128 659 2300 946 
Q 2472 1234 2472 1741 
Q 2472 2247 2300 2534 
Q 2128 2822 1831 2822 
Q 1534 2822 1365 2534 
Q 1197 2247 1197 1741 
z
" transform="scale(0.015625)"/>
      <path id="DejaVuSansMono-Bold-69" d="M 691 3500 
L 2503 3500 
L 2503 703 
L 3641 703 
L 3641 0 
L 447 0 
L 447 703 
L 1588 703 
L 1588 2797 
L 691 2797 
L 691 3500 
z
M 1588 5203 
L 2503 5203 
L 2503 4134 
L 1588 4134 
L 1588 5203 
z
" transform="scale(0.015625)"/>
      <path id="DejaVuSansMono-Bold-66" d="M 2309 3806 
L 2309 3500 
L 3384 3500 
L 3384 2797 
L 2309 2797 
L 2309 0 
L 1394 0 
L 1394 2797 
L 544 2797 
L 544 3500 
L 1394 3500 
L 1394 3744 
Q 1394 4375 1656 4619 
Q 1919 4863 2631 4863 
L 3384 4863 
L 3384 4159 
L 2669 4159 
Q 2463 4159 2389 4084 
Q 2316 4009 2309 3806 
z
" transform="scale(0.015625)"/>
     </defs>
     <use xlink:href="#DejaVuSansMono-Bold-70"/>
     <use xlink:href="#DejaVuSansMono-Bold-5f" transform="translate(60.205078 0)"/>
     <use xlink:href="#DejaVuSansMono-Bold-64" transform="translate(120.410156 0)"/>
     <use xlink:href="#DejaVuSansMono-Bold-69" transform="translate(180.615234 0)"/>
     <use xlink:href="#DejaVuSansMono-Bold-66" transform="translate(240.820312 0)"/>
     <use xlink:href="#DejaVuSansMono-Bold-66" transform="translate(301.025391 0)"/>
    </g>
   </g>
   <g id="text_5">
    <!-- P(β_normal − β_tumor &gt; δ) -->
    <g transform="translate(297.982422 150.206758) scale(0.085 -0.085)">
     <defs>
      <path id="DejaVuSans-6c" d="M 603 4863 
L 1178 4863 
L 1178 0 
L 603 0 
L 603 4863 
z
" transform="scale(0.015625)"/>
      <path id="DejaVuSans-2212" d="M 678 2272 
L 4684 2272 
L 4684 1741 
L 678 1741 
L 678 2272 
z
" transform="scale(0.015625)"/>
      <path id="DejaVuSans-3e" d="M 678 3150 
L 678 3719 
L 4684 2266 
L 4684 1747 
L 678 294 
L 678 863 
L 3897 2003 
L 678 3150 
z
" transform="scale(0.015625)"/>
      <path id="DejaVuSans-3b4" d="M 3138 4053 
Q 2819 4272 2072 4272 
Q 1281 4272 1281 3906 
Q 1281 3619 2106 3469 
Q 2756 3353 3122 3003 
Q 3566 2581 3566 1716 
Q 3566 888 3138 400 
Q 2709 -91 1959 -91 
Q 1213 -91 781 400 
Q 353 888 353 1747 
Q 353 2384 781 2900 
Q 947 3100 1181 3213 
Q 694 3459 694 3900 
Q 694 4750 2072 4750 
Q 2763 4750 3138 4531 
L 3138 4053 
z
M 1613 3056 
Q 1400 2966 1228 2738 
Q 959 2384 959 1747 
Q 959 1113 1225 756 
Q 1494 397 1959 397 
Q 2419 397 2687 759 
Q 2956 1122 2956 1716 
Q 2956 2338 2672 2638 
Q 2369 2959 1975 2994 
Q 1775 3013 1613 3056 
z
" transform="scale(0.015625)"/>
     </defs>
     <use xlink:href="#DejaVuSans-50"/>
     <use xlink:href="#DejaVuSans-28" transform="translate(60.302734 0)"/>
     <use xlink:href="#DejaVuSans-3b2" transform="translate(99.316406 0)"/>
     <use xlink:href="#DejaVuSans-5f" transform="translate(163.134766 0)"/>
     <use xlink:href="#DejaVuSans-6e" transform="translate(213.134766 0)"/>
     <use xlink:href="#DejaVuSans-6f" transform="translate(276.513672 0)"/>
     <use xlink:href="#DejaVuSans-72" transform="translate(337.695312 0)"/>
     <use xlink:href="#DejaVuSans-6d" transform="translate(377.058594 0)"/>
     <use xlink:href="#DejaVuSans-61" transform="translate(474.470703 0)"/>
     <use xlink:href="#DejaVuSans-6c" transform="translate(535.75 0)"/>
     <use xlink:href="#DejaVuSans-20" transform="translate(563.533203 0)"/>
     <use xlink:href="#DejaVuSans-2212" transform="translate(595.320312 0)"/>
     <use xlink:href="#DejaVuSans-20" transform="translate(679.109375 0)"/>
     <use xlink:href="#DejaVuSans-3b2" transform="translate(710.896484 0)"/>
     <use xlink:href="#DejaVuSans-5f" transform="translate(774.714844 0)"/>
     <use xlink:href="#DejaVuSans-74" transform="translate(824.714844 0)"/>
     <use xlink:href="#DejaVuSans-75" transform="translate(863.923828 0)"/>
     <use xlink:href="#DejaVuSans-6d" transform="translate(927.302734 0)"/>
     <use xlink:href="#DejaVuSans-6f" transform="translate(1024.714844 0)"/>
     <use xlink:href="#DejaVuSans-72" transform="translate(1085.896484 0)"/>
     <use xlink:href="#DejaVuSans-20" transform="translate(1127.009766 0)"/>
     <use xlink:href="#DejaVuSans-3e" transform="translate(1158.796875 0)"/>
     <use xlink:href="#DejaVuSans-20" transform="translate(1242.585938 0)"/>
     <use xlink:href="#DejaVuSans-3b4" transform="translate(1274.373047 0)"/>
     <use xlink:href="#DejaVuSans-29" transform="translate(1335.554688 0)"/>
    </g>
    <!-- (normal approximation) -->
    <g transform="translate(306.14043 159.961305) scale(0.085 -0.085)">
     <defs>
      <path id="DejaVuSans-70" d="M 1159 525 
L 1159 -1331 
L 581 -1331 
L 581 3500 
L 1159 3500 
L 1159 2969 
Q 1341 3281 1617 3432 
Q 1894 3584 2278 3584 
Q 2916 3584 3314 3078 
Q 3713 2572 3713 1747 
Q 3713 922 3314 415 
Q 2916 -91 2278 -91 
Q 1894 -91 1617 61 
Q 1341 213 1159 525 
z
M 3116 1747 
Q 3116 2381 2855 2742 
Q 2594 3103 2138 3103 
Q 1681 3103 1420 2742 
Q 1159 2381 1159 1747 
Q 1159 1113 1420 752 
Q 1681 391 2138 391 
Q 2594 391 2855 752 
Q 3116 1113 3116 1747 
z
" transform="scale(0.015625)"/>
      <path id="DejaVuSans-78" d="M 3513 3500 
L 2247 1797 
L 3578 0 
L 2900 0 
L 1881 1375 
L 863 0 
L 184 0 
L 1544 1831 
L 300 3500 
L 978 3500 
L 1906 2253 
L 2834 3500 
L 3513 3500 
z
" transform="scale(0.015625)"/>
      <path id="DejaVuSans-69" d="M 603 3500 
L 1178 3500 
L 1178 0 
L 603 0 
L 603 3500 
z
M 603 4863 
L 1178 4863 
L 1178 4134 
L 603 4134 
L 603 4863 
z
" transform="scale(0.015625)"/>
     </defs>
     <use xlink:href="#DejaVuSans-28"/>
     <use xlink:href="#DejaVuSans-6e" transform="translate(39.013672 0)"/>
     <use xlink:href="#DejaVuSans-6f" transform="translate(102.392578 0)"/>
     <use xlink:href="#DejaVuSans-72" transform="translate(163.574219 0)"/>
     <use xlink:href="#DejaVuSans-6d" transform="translate(202.9375 0)"/>
     <use xlink:href="#DejaVuSans-61" transform="translate(300.349609 0)"/>
     <use xlink:href="#DejaVuSans-6c" transform="translate(361.628906 0)"/>
     <use xlink:href="#DejaVuSans-20" transform="translate(389.412109 0)"/>
     <use xlink:href="#DejaVuSans-61" transform="translate(421.199219 0)"/>
     <use xlink:href="#DejaVuSans-70" transform="translate(482.478516 0)"/>
     <use xlink:href="#DejaVuSans-70" transform="translate(545.955078 0)"/>
     <use xlink:href="#DejaVuSans-72" transform="translate(609.431641 0)"/>
     <use xlink:href="#DejaVuSans-6f" transform="translate(648.294922 0)"/>
     <use xlink:href="#DejaVuSans-78" transform="translate(706.351562 0)"/>
     <use xlink:href="#DejaVuSans-69" transform="translate(765.53125 0)"/>
     <use xlink:href="#DejaVuSans-6d" transform="translate(793.314453 0)"/>
     <use xlink:href="#DejaVuSans-61" transform="translate(890.726562 0)"/>
     <use xlink:href="#DejaVuSans-74" transform="translate(952.005859 0)"/>
     <use xlink:href="#DejaVuSans-69" transform="translate(991.214844 0)"/>
     <use xlink:href="#DejaVuSans-6f" transform="translate(1018.998047 0)"/>
     <use xlink:href="#DejaVuSans-6e" transform="translate(1080.179688 0)"/>
     <use xlink:href="#DejaVuSans-29" transform="translate(1143.558594 0)"/>
    </g>
   </g>
   <g id="text_6">
    <!-- p_trust -->
    <g transform="translate(575.554688 125.2335) scale(0.12 -0.12)">
     <defs>
      <path id="DejaVuSansMono-Bold-75" d="M 500 1222 
L 500 3500 
L 1416 3500 
L 1416 1363 
Q 1416 984 1522 821 
Q 1628 659 1875 659 
Q 2122 659 2261 878 
Q 2400 1097 2400 1491 
L 2400 3500 
L 3316 3500 
L 3316 0 
L 2400 0 
L 2400 519 
Q 2303 228 2070 68 
Q 1838 -91 1509 -91 
Q 1009 -91 754 240 
Q 500 572 500 1222 
z
" transform="scale(0.015625)"/>
      <path id="DejaVuSansMono-Bold-73" d="M 3097 3391 
L 3097 2591 
Q 2844 2753 2570 2836 
Q 2297 2919 2022 2919 
Q 1716 2919 1559 2830 
Q 1403 2741 1403 2566 
Q 1403 2316 2072 2159 
L 2106 2150 
L 2369 2088 
Q 2869 1969 3101 1705 
Q 3334 1441 3334 991 
Q 3334 450 2979 179 
Q 2625 -91 1913 -91 
Q 1597 -91 1265 -36 
Q 934 19 594 128 
L 594 928 
Q 897 756 1211 665 
Q 1525 575 1819 575 
Q 2141 575 2306 669 
Q 2472 763 2472 941 
Q 2472 1116 2355 1209 
Q 2238 1303 1797 1409 
L 1544 1466 
Q 1019 1584 778 1837 
Q 538 2091 538 2516 
Q 538 3022 903 3303 
Q 1269 3584 1931 3584 
Q 2228 3584 2523 3536 
Q 2819 3488 3097 3391 
z
" transform="scale(0.015625)"/>
     </defs>
     <use xlink:href="#DejaVuSansMono-Bold-70"/>
     <use xlink:href="#DejaVuSansMono-Bold-5f" transform="translate(60.205078 0)"/>
     <use xlink:href="#DejaVuSansMono-Bold-74" transform="translate(120.410156 0)"/>
     <use xlink:href="#DejaVuSansMono-Bold-72" transform="translate(180.615234 0)"/>
     <use xlink:href="#DejaVuSansMono-Bold-75" transform="translate(240.820312 0)"/>
     <use xlink:href="#DejaVuSansMono-Bold-73" transform="translate(301.025391 0)"/>
     <use xlink:href="#DejaVuSansMono-Bold-74" transform="translate(361.230469 0)"/>
    </g>
   </g>
   <g id="text_7">
    <!-- EvidenceClass × min(1, n/30) -->
    <g transform="translate(537.787266 150.298398) scale(0.085 -0.085)">
     <defs>
      <path id="DejaVuSans-45" d="M 628 4666 
L 3578 4666 
L 3578 4134 
L 1259 4134 
L 1259 2753 
L 3481 2753 
L 3481 2222 
L 1259 2222 
L 1259 531 
L 3634 531 
L 3634 0 
L 628 0 
L 628 4666 
z
" transform="scale(0.015625)"/>
      <path id="DejaVuSans-76" d="M 191 3500 
L 800 3500 
L 1894 563 
L 2988 3500 
L 3597 3500 
L 2284 0 
L 1503 0 
L 191 3500 
z
" transform="scale(0.015625)"/>
      <path id="DejaVuSans-63" d="M 3122 3366 
L 3122 2828 
Q 2878 2963 2633 3030 
Q 2388 3097 2138 3097 
Q 1578 3097 1268 2742 
Q 959 2388 959 1747 
Q 959 1106 1268 751 
Q 1578 397 2138 397 
Q 2388 397 2633 464 
Q 2878 531 3122 666 
L 3122 134 
Q 2881 22 2623 -34 
Q 2366 -91 2075 -91 
Q 1284 -91 818 406 
Q 353 903 353 1747 
Q 353 2603 823 3093 
Q 1294 3584 2113 3584 
Q 2378 3584 2631 3529 
Q 2884 3475 3122 3366 
z
" transform="scale(0.015625)"/>
      <path id="DejaVuSans-43" d="M 4122 4306 
L 4122 3641 
Q 3803 3938 3442 4084 
Q 3081 4231 2675 4231 
Q 1875 4231 1450 3742 
Q 1025 3253 1025 2328 
Q 1025 1406 1450 917 
Q 1875 428 2675 428 
Q 3081 428 3442 575 
Q 3803 722 4122 1019 
L 4122 359 
Q 3791 134 3420 21 
Q 3050 -91 2638 -91 
Q 1578 -91 968 557 
Q 359 1206 359 2328 
Q 359 3453 968 4101 
Q 1578 4750 2638 4750 
Q 3056 4750 3426 4639 
Q 3797 4528 4122 4306 
z
" transform="scale(0.015625)"/>
      <path id="DejaVuSans-d7" d="M 4488 3438 
L 3059 2003 
L 4488 575 
L 4116 197 
L 2681 1631 
L 1247 197 
L 878 575 
L 2303 2003 
L 878 3438 
L 1247 3816 
L 2681 2381 
L 4116 3816 
L 4488 3438 
z
" transform="scale(0.015625)"/>
      <path id="DejaVuSans-31" d="M 794 531 
L 1825 531 
L 1825 4091 
L 703 3866 
L 703 4441 
L 1819 4666 
L 2450 4666 
L 2450 531 
L 3481 531 
L 3481 0 
L 794 0 
L 794 531 
z
" transform="scale(0.015625)"/>
      <path id="DejaVuSans-2c" d="M 750 794 
L 1409 794 
L 1409 256 
L 897 -744 
L 494 -744 
L 750 256 
L 750 794 
z
" transform="scale(0.015625)"/>
      <path id="DejaVuSans-2f" d="M 1625 4666 
L 2156 4666 
L 531 -594 
L 0 -594 
L 1625 4666 
z
" transform="scale(0.015625)"/>
     </defs>
     <use xlink:href="#DejaVuSans-45"/>
     <use xlink:href="#DejaVuSans-76" transform="translate(63.183594 0)"/>
     <use xlink:href="#DejaVuSans-69" transform="translate(122.363281 0)"/>
     <use xlink:href="#DejaVuSans-64" transform="translate(150.146484 0)"/>
     <use xlink:href="#DejaVuSans-65" transform="translate(213.623047 0)"/>
     <use xlink:href="#DejaVuSans-6e" transform="translate(275.146484 0)"/>
     <use xlink:href="#DejaVuSans-63" transform="translate(338.525391 0)"/>
     <use xlink:href="#DejaVuSans-65" transform="translate(393.505859 0)"/>
     <use xlink:href="#DejaVuSans-43" transform="translate(455.029297 0)"/>
     <use xlink:href="#DejaVuSans-6c" transform="translate(524.853516 0)"/>
     <use xlink:href="#DejaVuSans-61" transform="translate(552.636719 0)"/>
     <use xlink:href="#DejaVuSans-73" transform="translate(613.916016 0)"/>
     <use xlink:href="#DejaVuSans-73" transform="translate(666.015625 0)"/>
     <use xlink:href="#DejaVuSans-20" transform="translate(718.115234 0)"/>
     <use xlink:href="#DejaVuSans-d7" transform="translate(749.902344 0)"/>
     <use xlink:href="#DejaVuSans-20" transform="translate(833.691406 0)"/>
     <use xlink:href="#DejaVuSans-6d" transform="translate(865.478516 0)"/>
     <use xlink:href="#DejaVuSans-69" transform="translate(962.890625 0)"/>
     <use xlink:href="#DejaVuSans-6e" transform="translate(990.673828 0)"/>
     <use xlink:href="#DejaVuSans-28" transform="translate(1054.052734 0)"/>
     <use xlink:href="#DejaVuSans-31" transform="translate(1093.066406 0)"/>
     <use xlink:href="#DejaVuSans-2c" transform="translate(1156.689453 0)"/>
     <use xlink:href="#DejaVuSans-20" transform="translate(1188.476562 0)"/>
     <use xlink:href="#DejaVuSans-6e" transform="translate(1220.263672 0)"/>
     <use xlink:href="#DejaVuSans-2f" transform="translate(1283.642578 0)"/>
     <use xlink:href="#DejaVuSans-33" transform="translate(1317.333984 0)"/>
     <use xlink:href="#DejaVuSans-30" transform="translate(1380.957031 0)"/>
     <use xlink:href="#DejaVuSans-29" transform="translate(1444.580078 0)"/>
    </g>
    <!-- (saturating) -->
    <g transform="translate(575.755703 159.816539) scale(0.085 -0.085)">
     <defs>
      <path id="DejaVuSans-67" d="M 2906 1791 
Q 2906 2416 2648 2759 
Q 2391 3103 1925 3103 
Q 1463 3103 1205 2759 
Q 947 2416 947 1791 
Q 947 1169 1205 825 
Q 1463 481 1925 481 
Q 2391 481 2648 825 
Q 2906 1169 2906 1791 
z
M 3481 434 
Q 3481 -459 3084 -895 
Q 2688 -1331 1869 -1331 
Q 1566 -1331 1297 -1286 
Q 1028 -1241 775 -1147 
L 775 -588 
Q 1028 -725 1275 -790 
Q 1522 -856 1778 -856 
Q 2344 -856 2625 -561 
Q 2906 -266 2906 331 
L 2906 616 
Q 2728 306 2450 153 
Q 2172 0 1784 0 
Q 1141 0 747 490 
Q 353 981 353 1791 
Q 353 2603 747 3093 
Q 1141 3584 1784 3584 
Q 2172 3584 2450 3431 
Q 2728 3278 2906 2969 
L 2906 3500 
L 3481 3500 
L 3481 434 
z
" transform="scale(0.015625)"/>
     </defs>
     <use xlink:href="#DejaVuSans-28"/>
     <use xlink:href="#DejaVuSans-73" transform="translate(39.013672 0)"/>
     <use xlink:href="#DejaVuSans-61" transform="translate(91.113281 0)"/>
     <use xlink:href="#DejaVuSans-74" transform="translate(152.392578 0)"/>
     <use xlink:href="#DejaVuSans-75" transform="translate(191.601562 0)"/>
     <use xlink:href="#DejaVuSans-72" transform="translate(254.980469 0)"/>
     <use xlink:href="#DejaVuSans-61" transform="translate(296.09375 0)"/>
     <use xlink:href="#DejaVuSans-74" transform="translate(357.373047 0)"/>
     <use xlink:href="#DejaVuSans-69" transform="translate(396.582031 0)"/>
     <use xlink:href="#DejaVuSans-6e" transform="translate(424.365234 0)"/>
     <use xlink:href="#DejaVuSans-67" transform="translate(487.744141 0)"/>
     <use xlink:href="#DejaVuSans-29" transform="translate(551.220703 0)"/>
    </g>
   </g>
   <g id="text_8">
    <!-- × -->
    <g style="fill: #1a73e8" transform="translate(211.832313 141.31075) scale(0.2 -0.2)">
     <defs>
      <path id="DejaVuSans-Bold-d7" d="M 4563 3359 
L 3206 2003 
L 4563 653 
L 4038 128 
L 2681 1478 
L 1325 128 
L 800 653 
L 2156 2003 
L 800 3359 
L 1325 3884 
L 2681 2528 
L 4038 3884 
L 4563 3359 
z
" transform="scale(0.015625)"/>
     </defs>
     <use xlink:href="#DejaVuSans-Bold-d7"/>
    </g>
   </g>
   <g id="text_9">
    <!-- × -->
    <g style="fill: #1a73e8" transform="translate(456.272312 141.31075) scale(0.2 -0.2)">
     <use xlink:href="#DejaVuSans-Bold-d7"/>
    </g>
   </g>
   <g id="patch_6">
    <path d="M 356.4 175.015956 
Q 356.4 211.929925 356.4 246.607826 
" style="fill: none; stroke: #1a73e8; stroke-width: 2; stroke-linecap: round"/>
    <path d="M 358.4 242.607826 
L 356.4 246.607826 
L 354.4 242.607826 
" style="fill: none; stroke: #1a73e8; stroke-width: 2; stroke-linecap: round"/>
   </g>
   <g id="text_10">
    <!-- p_therapeutic_selectivity -->
    <g transform="translate(273.620703 274.326531) scale(0.11 -0.11)">
     <defs>
      <path id="DejaVuSansMono-Bold-68" d="M 3347 2272 
L 3347 0 
L 2438 0 
L 2438 2131 
Q 2438 2509 2330 2671 
Q 2222 2834 1978 2834 
Q 1728 2834 1587 2614 
Q 1447 2394 1447 2003 
L 1447 0 
L 538 0 
L 538 4863 
L 1447 4863 
L 1447 2975 
Q 1544 3266 1778 3425 
Q 2013 3584 2344 3584 
Q 2841 3584 3094 3254 
Q 3347 2925 3347 2272 
z
" transform="scale(0.015625)"/>
      <path id="DejaVuSansMono-Bold-65" d="M 3444 172 
Q 3125 41 2794 -25 
Q 2463 -91 2094 -91 
Q 1216 -91 752 379 
Q 288 850 288 1734 
Q 288 2591 734 3087 
Q 1181 3584 1953 3584 
Q 2731 3584 3161 3123 
Q 3591 2663 3591 1825 
L 3591 1453 
L 1219 1453 
Q 1222 1041 1462 837 
Q 1703 634 2181 634 
Q 2497 634 2803 725 
Q 3109 816 3444 1013 
L 3444 172 
z
M 2669 2141 
Q 2663 2503 2483 2689 
Q 2303 2875 1953 2875 
Q 1638 2875 1450 2683 
Q 1263 2491 1228 2138 
L 2669 2141 
z
" transform="scale(0.015625)"/>
      <path id="DejaVuSansMono-Bold-63" d="M 3316 178 
Q 3084 44 2818 -23 
Q 2553 -91 2247 -91 
Q 1438 -91 981 396 
Q 525 884 525 1747 
Q 525 2613 984 3102 
Q 1444 3591 2253 3591 
Q 2534 3591 2795 3525 
Q 3056 3459 3316 3322 
L 3316 2484 
Q 3116 2656 2877 2748 
Q 2638 2841 2381 2841 
Q 1934 2841 1693 2556 
Q 1453 2272 1453 1747 
Q 1453 1222 1693 940 
Q 1934 659 2381 659 
Q 2647 659 2878 748 
Q 3109 838 3316 1019 
L 3316 178 
z
" transform="scale(0.015625)"/>
      <path id="DejaVuSansMono-Bold-6c" d="M 1209 1459 
L 1209 4159 
L 281 4159 
L 281 4863 
L 2125 4863 
L 2125 1459 
Q 2125 1047 2253 875 
Q 2381 703 2688 703 
L 3419 703 
L 3419 0 
L 2431 0 
Q 1778 0 1493 337 
Q 1209 675 1209 1459 
z
" transform="scale(0.015625)"/>
      <path id="DejaVuSansMono-Bold-76" d="M 3603 3500 
L 2491 0 
L 1363 0 
L 250 3500 
L 1178 3500 
L 1925 769 
L 2675 3500 
L 3603 3500 
z
" transform="scale(0.015625)"/>
      <path id="DejaVuSansMono-Bold-79" d="M 2222 -378 
Q 2038 -872 1780 -1098 
Q 1522 -1325 1153 -1325 
L 397 -1325 
L 397 -628 
L 769 -628 
Q 1050 -628 1181 -533 
Q 1313 -438 1447 -91 
L 1516 97 
L 184 3500 
L 1147 3500 
L 1947 1228 
L 2713 3500 
L 3675 3500 
L 2222 -378 
z
" transform="scale(0.015625)"/>
     </defs>
     <use xlink:href="#DejaVuSansMono-Bold-70"/>
     <use xlink:href="#DejaVuSansMono-Bold-5f" transform="translate(60.205078 0)"/>
     <use xlink:href="#DejaVuSansMono-Bold-74" transform="translate(120.410156 0)"/>
     <use xlink:href="#DejaVuSansMono-Bold-68" transform="translate(180.615234 0)"/>
     <use xlink:href="#DejaVuSansMono-Bold-65" transform="translate(240.820312 0)"/>
     <use xlink:href="#DejaVuSansMono-Bold-72" transform="translate(301.025391 0)"/>
     <use xlink:href="#DejaVuSansMono-Bold-61" transform="translate(361.230469 0)"/>
     <use xlink:href="#DejaVuSansMono-Bold-70" transform="translate(421.435547 0)"/>
     <use xlink:href="#DejaVuSansMono-Bold-65" transform="translate(481.640625 0)"/>
     <use xlink:href="#DejaVuSansMono-Bold-75" transform="translate(541.845703 0)"/>
     <use xlink:href="#DejaVuSansMono-Bold-74" transform="translate(602.050781 0)"/>
     <use xlink:href="#DejaVuSansMono-Bold-69" transform="translate(662.255859 0)"/>
     <use xlink:href="#DejaVuSansMono-Bold-63" transform="translate(722.460938 0)"/>
     <use xlink:href="#DejaVuSansMono-Bold-5f" transform="translate(782.666016 0)"/>
     <use xlink:href="#DejaVuSansMono-Bold-73" transform="translate(842.871094 0)"/>
     <use xlink:href="#DejaVuSansMono-Bold-65" transform="translate(903.076172 0)"/>
     <use xlink:href="#DejaVuSansMono-Bold-6c" transform="translate(963.28125 0)"/>
     <use xlink:href="#DejaVuSansMono-Bold-65" transform="translate(1023.486328 0)"/>
     <use xlink:href="#DejaVuSansMono-Bold-63" transform="translate(1083.691406 0)"/>
     <use xlink:href="#DejaVuSansMono-Bold-74" transform="translate(1143.896484 0)"/>
     <use xlink:href="#DejaVuSansMono-Bold-69" transform="translate(1204.101562 0)"/>
     <use xlink:href="#DejaVuSansMono-Bold-76" transform="translate(1264.306641 0)"/>
     <use xlink:href="#DejaVuSansMono-Bold-69" transform="translate(1324.511719 0)"/>
     <use xlink:href="#DejaVuSansMono-Bold-74" transform="translate(1384.716797 0)"/>
     <use xlink:href="#DejaVuSansMono-Bold-79" transform="translate(1444.921875 0)"/>
    </g>
   </g>
   <g id="text_11">
    <!--   =  p_targ × p_diff × p_trust -->
    <g transform="translate(270.610547 295.298897) scale(0.095 -0.095)">
     <defs>
      <path id="DejaVuSansMono-20" transform="scale(0.015625)"/>
      <path id="DejaVuSansMono-3d" d="M 275 1638 
L 3578 1638 
L 3578 1100 
L 275 1100 
L 275 1638 
z
M 275 2906 
L 3578 2906 
L 3578 2375 
L 275 2375 
L 275 2906 
z
" transform="scale(0.015625)"/>
      <path id="DejaVuSansMono-70" d="M 1172 441 
L 1172 -1331 
L 594 -1331 
L 594 3500 
L 1172 3500 
L 1172 3053 
Q 1316 3313 1555 3448 
Q 1794 3584 2106 3584 
Q 2741 3584 3102 3093 
Q 3463 2603 3463 1734 
Q 3463 881 3100 395 
Q 2738 -91 2106 -91 
Q 1788 -91 1548 45 
Q 1309 181 1172 441 
z
M 2859 1747 
Q 2859 2416 2648 2756 
Q 2438 3097 2022 3097 
Q 1603 3097 1387 2755 
Q 1172 2413 1172 1747 
Q 1172 1084 1387 740 
Q 1603 397 2022 397 
Q 2438 397 2648 737 
Q 2859 1078 2859 1747 
z
" transform="scale(0.015625)"/>
      <path id="DejaVuSansMono-5f" d="M 3853 -1259 
L 3853 -1509 
L 0 -1509 
L 0 -1259 
L 3853 -1259 
z
" transform="scale(0.015625)"/>
      <path id="DejaVuSansMono-74" d="M 1919 4494 
L 1919 3500 
L 3225 3500 
L 3225 3053 
L 1919 3053 
L 1919 1153 
Q 1919 766 2066 612 
Q 2213 459 2578 459 
L 3225 459 
L 3225 0 
L 2522 0 
Q 1875 0 1609 259 
Q 1344 519 1344 1153 
L 1344 3053 
L 409 3053 
L 409 3500 
L 1344 3500 
L 1344 4494 
L 1919 4494 
z
" transform="scale(0.015625)"/>
      <path id="DejaVuSansMono-61" d="M 2194 1759 
L 2003 1759 
Q 1500 1759 1245 1582 
Q 991 1406 991 1056 
Q 991 741 1181 566 
Q 1372 391 1709 391 
Q 2184 391 2456 720 
Q 2728 1050 2731 1631 
L 2731 1759 
L 2194 1759 
z
M 3309 1997 
L 3309 0 
L 2731 0 
L 2731 519 
Q 2547 206 2267 57 
Q 1988 -91 1588 -91 
Q 1053 -91 734 211 
Q 416 513 416 1019 
Q 416 1603 808 1906 
Q 1200 2209 1959 2209 
L 2731 2209 
L 2731 2300 
Q 2728 2719 2518 2908 
Q 2309 3097 1850 3097 
Q 1556 3097 1256 3012 
Q 956 2928 672 2766 
L 672 3341 
Q 991 3463 1283 3523 
Q 1575 3584 1850 3584 
Q 2284 3584 2592 3456 
Q 2900 3328 3091 3072 
Q 3209 2916 3259 2686 
Q 3309 2456 3309 1997 
z
" transform="scale(0.015625)"/>
      <path id="DejaVuSansMono-72" d="M 3609 2778 
Q 3425 2922 3234 2987 
Q 3044 3053 2816 3053 
Q 2278 3053 1993 2715 
Q 1709 2378 1709 1741 
L 1709 0 
L 1131 0 
L 1131 3500 
L 1709 3500 
L 1709 2816 
Q 1853 3188 2151 3386 
Q 2450 3584 2859 3584 
Q 3072 3584 3256 3531 
Q 3441 3478 3609 3366 
L 3609 2778 
z
" transform="scale(0.015625)"/>
      <path id="DejaVuSansMono-67" d="M 2681 1778 
Q 2681 2425 2470 2761 
Q 2259 3097 1856 3097 
Q 1434 3097 1212 2761 
Q 991 2425 991 1778 
Q 991 1131 1214 792 
Q 1438 453 1863 453 
Q 2259 453 2470 793 
Q 2681 1134 2681 1778 
z
M 3256 225 
Q 3256 -563 2884 -969 
Q 2513 -1375 1791 -1375 
Q 1553 -1375 1293 -1331 
Q 1034 -1288 775 -1203 
L 775 -634 
Q 1081 -778 1331 -847 
Q 1581 -916 1791 -916 
Q 2256 -916 2468 -662 
Q 2681 -409 2681 141 
L 2681 166 
L 2681 556 
Q 2544 263 2306 119 
Q 2069 -25 1728 -25 
Q 1116 -25 750 465 
Q 384 956 384 1778 
Q 384 2603 750 3093 
Q 1116 3584 1728 3584 
Q 2066 3584 2300 3450 
Q 2534 3316 2681 3034 
L 2681 3488 
L 3256 3488 
L 3256 225 
z
" transform="scale(0.015625)"/>
      <path id="DejaVuSansMono-d7" d="M 469 916 
L 1563 2003 
L 469 3097 
L 831 3463 
L 1925 2369 
L 3022 3463 
L 3384 3097 
L 2291 2003 
L 3378 916 
L 3016 544 
L 1925 1638 
L 838 544 
L 469 916 
z
" transform="scale(0.015625)"/>
      <path id="DejaVuSansMono-64" d="M 2681 3053 
L 2681 4863 
L 3256 4863 
L 3256 0 
L 2681 0 
L 2681 441 
Q 2538 181 2298 45 
Q 2059 -91 1747 -91 
Q 1113 -91 748 401 
Q 384 894 384 1759 
Q 384 2613 750 3098 
Q 1116 3584 1747 3584 
Q 2063 3584 2303 3448 
Q 2544 3313 2681 3053 
z
M 991 1747 
Q 991 1078 1203 737 
Q 1416 397 1831 397 
Q 2247 397 2464 740 
Q 2681 1084 2681 1747 
Q 2681 2413 2464 2755 
Q 2247 3097 1831 3097 
Q 1416 3097 1203 2756 
Q 991 2416 991 1747 
z
" transform="scale(0.015625)"/>
      <path id="DejaVuSansMono-69" d="M 800 3500 
L 2272 3500 
L 2272 447 
L 3413 447 
L 3413 0 
L 556 0 
L 556 447 
L 1697 447 
L 1697 3053 
L 800 3053 
L 800 3500 
z
M 1697 4863 
L 2272 4863 
L 2272 4134 
L 1697 4134 
L 1697 4863 
z
" transform="scale(0.015625)"/>
      <path id="DejaVuSansMono-66" d="M 3322 4863 
L 3322 4384 
L 2669 4384 
Q 2359 4384 2239 4257 
Q 2119 4131 2119 3809 
L 2119 3500 
L 3322 3500 
L 3322 3053 
L 2119 3053 
L 2119 0 
L 1544 0 
L 1544 3053 
L 609 3053 
L 609 3500 
L 1544 3500 
L 1544 3744 
Q 1544 4319 1808 4591 
Q 2072 4863 2631 4863 
L 3322 4863 
z
" transform="scale(0.015625)"/>
      <path id="DejaVuSansMono-75" d="M 609 1325 
L 609 3494 
L 1184 3494 
L 1184 1325 
Q 1184 853 1351 631 
Q 1519 409 1869 409 
Q 2275 409 2490 695 
Q 2706 981 2706 1516 
L 2706 3494 
L 3284 3494 
L 3284 0 
L 2706 0 
L 2706 525 
Q 2553 222 2289 65 
Q 2025 -91 1672 -91 
Q 1134 -91 871 261 
Q 609 613 609 1325 
z
" transform="scale(0.015625)"/>
      <path id="DejaVuSansMono-73" d="M 3041 3378 
L 3041 2816 
Q 2794 2959 2544 3031 
Q 2294 3103 2034 3103 
Q 1644 3103 1451 2976 
Q 1259 2850 1259 2591 
Q 1259 2356 1403 2240 
Q 1547 2125 2119 2016 
L 2350 1972 
Q 2778 1891 2998 1647 
Q 3219 1403 3219 1013 
Q 3219 494 2850 201 
Q 2481 -91 1825 -91 
Q 1566 -91 1281 -36 
Q 997 19 666 128 
L 666 722 
Q 988 556 1281 473 
Q 1575 391 1838 391 
Q 2219 391 2428 545 
Q 2638 700 2638 978 
Q 2638 1378 1872 1531 
L 1847 1538 
L 1631 1581 
Q 1134 1678 906 1908 
Q 678 2138 678 2534 
Q 678 3038 1018 3311 
Q 1359 3584 1991 3584 
Q 2272 3584 2531 3532 
Q 2791 3481 3041 3378 
z
" transform="scale(0.015625)"/>
     </defs>
     <use xlink:href="#DejaVuSansMono-20"/>
     <use xlink:href="#DejaVuSansMono-20" transform="translate(60.205078 0)"/>
     <use xlink:href="#DejaVuSansMono-3d" transform="translate(120.410156 0)"/>
     <use xlink:href="#DejaVuSansMono-20" transform="translate(180.615234 0)"/>
     <use xlink:href="#DejaVuSansMono-20" transform="translate(240.820312 0)"/>
     <use xlink:href="#DejaVuSansMono-70" transform="translate(301.025391 0)"/>
     <use xlink:href="#DejaVuSansMono-5f" transform="translate(361.230469 0)"/>
     <use xlink:href="#DejaVuSansMono-74" transform="translate(421.435547 0)"/>
     <use xlink:href="#DejaVuSansMono-61" transform="translate(481.640625 0)"/>
     <use xlink:href="#DejaVuSansMono-72" transform="translate(541.845703 0)"/>
     <use xlink:href="#DejaVuSansMono-67" transform="translate(602.050781 0)"/>
     <use xlink:href="#DejaVuSansMono-20" transform="translate(662.255859 0)"/>
     <use xlink:href="#DejaVuSansMono-d7" transform="translate(722.460938 0)"/>
     <use xlink:href="#DejaVuSansMono-20" transform="translate(782.666016 0)"/>
     <use xlink:href="#DejaVuSansMono-70" transform="translate(842.871094 0)"/>
     <use xlink:href="#DejaVuSansMono-5f" transform="translate(903.076172 0)"/>
     <use xlink:href="#DejaVuSansMono-64" transform="translate(963.28125 0)"/>
     <use xlink:href="#DejaVuSansMono-69" transform="translate(1023.486328 0)"/>
     <use xlink:href="#DejaVuSansMono-66" transform="translate(1083.691406 0)"/>
     <use xlink:href="#DejaVuSansMono-66" transform="translate(1143.896484 0)"/>
     <use xlink:href="#DejaVuSansMono-20" transform="translate(1204.101562 0)"/>
     <use xlink:href="#DejaVuSansMono-d7" transform="translate(1264.306641 0)"/>
     <use xlink:href="#DejaVuSansMono-20" transform="translate(1324.511719 0)"/>
     <use xlink:href="#DejaVuSansMono-70" transform="translate(1384.716797 0)"/>
     <use xlink:href="#DejaVuSansMono-5f" transform="translate(1444.921875 0)"/>
     <use xlink:href="#DejaVuSansMono-74" transform="translate(1505.126953 0)"/>
     <use xlink:href="#DejaVuSansMono-72" transform="translate(1565.332031 0)"/>
     <use xlink:href="#DejaVuSansMono-75" transform="translate(1625.537109 0)"/>
     <use xlink:href="#DejaVuSansMono-73" transform="translate(1685.742188 0)"/>
     <use xlink:href="#DejaVuSansMono-74" transform="translate(1745.947266 0)"/>
    </g>
   </g>
   <g id="text_12">
    <!-- δ = differential margin (default 0.2). σ_Δ = √(σ_t² + σ_n²) with σ_k = IQR_k / 1.349 (floor 0.05). -->
    <g style="fill: #5f6368" transform="translate(10.692 342.216) scale(0.08 -0.08)">
     <defs>
      <path id="DejaVuSans-3d" d="M 678 2906 
L 4684 2906 
L 4684 2381 
L 678 2381 
L 678 2906 
z
M 678 1631 
L 4684 1631 
L 4684 1100 
L 678 1100 
L 678 1631 
z
" transform="scale(0.015625)"/>
      <path id="DejaVuSans-32" d="M 1228 531 
L 3431 531 
L 3431 0 
L 469 0 
L 469 531 
Q 828 903 1448 1529 
Q 2069 2156 2228 2338 
Q 2531 2678 2651 2914 
Q 2772 3150 2772 3378 
Q 2772 3750 2511 3984 
Q 2250 4219 1831 4219 
Q 1534 4219 1204 4116 
Q 875 4013 500 3803 
L 500 4441 
Q 881 4594 1212 4672 
Q 1544 4750 1819 4750 
Q 2544 4750 2975 4387 
Q 3406 4025 3406 3419 
Q 3406 3131 3298 2873 
Q 3191 2616 2906 2266 
Q 2828 2175 2409 1742 
Q 1991 1309 1228 531 
z
" transform="scale(0.015625)"/>
      <path id="DejaVuSans-3c3" d="M 1959 3044 
Q 1484 3044 1228 2700 
Q 959 2341 959 1747 
Q 959 1119 1226 758 
Q 1494 397 1959 397 
Q 2419 397 2687 759 
Q 2956 1122 2956 1747 
Q 2956 2319 2688 2700 
Q 2441 3044 1959 3044 
z
M 1959 3500 
L 3869 3500 
L 3869 2925 
L 3225 2925 
Q 3566 2438 3566 1747 
Q 3566 888 3138 400 
Q 2709 -91 1959 -91 
Q 1206 -91 781 400 
Q 353 888 353 1747 
Q 353 2613 781 3097 
Q 1134 3500 1959 3500 
z
" transform="scale(0.015625)"/>
      <path id="DejaVuSans-394" d="M 2188 4044 
L 906 525 
L 3472 525 
L 2188 4044 
z
M 50 0 
L 1831 4666 
L 2547 4666 
L 4325 0 
L 50 0 
z
" transform="scale(0.015625)"/>
      <path id="DejaVuSans-221a" d="M 3488 5191 
L 4078 5191 
L 4078 4891 
L 3719 4891 
L 1863 -128 
L 1656 -128 
L 659 2631 
L 269 2491 
L 191 2741 
L 1075 3047 
L 1875 831 
L 3488 5191 
z
" transform="scale(0.015625)"/>
      <path id="DejaVuSans-b2" d="M 838 2444 
L 2163 2444 
L 2163 2088 
L 294 2088 
L 294 2431 
Q 400 2528 597 2703 
Q 1672 3656 1672 3950 
Q 1672 4156 1509 4282 
Q 1347 4409 1081 4409 
Q 919 4409 728 4354 
Q 538 4300 313 4191 
L 313 4575 
Q 553 4663 761 4706 
Q 969 4750 1147 4750 
Q 1600 4750 1872 4544 
Q 2144 4338 2144 4000 
Q 2144 3566 1109 2678 
Q 934 2528 838 2444 
z
" transform="scale(0.015625)"/>
      <path id="DejaVuSans-2b" d="M 2944 4013 
L 2944 2272 
L 4684 2272 
L 4684 1741 
L 2944 1741 
L 2944 0 
L 2419 0 
L 2419 1741 
L 678 1741 
L 678 2272 
L 2419 2272 
L 2419 4013 
L 2944 4013 
z
" transform="scale(0.015625)"/>
      <path id="DejaVuSans-77" d="M 269 3500 
L 844 3500 
L 1563 769 
L 2278 3500 
L 2956 3500 
L 3675 769 
L 4391 3500 
L 4966 3500 
L 4050 0 
L 3372 0 
L 2619 2869 
L 1863 0 
L 1184 0 
L 269 3500 
z
" transform="scale(0.015625)"/>
      <path id="DejaVuSans-6b" d="M 581 4863 
L 1159 4863 
L 1159 1991 
L 2875 3500 
L 3609 3500 
L 1753 1863 
L 3688 0 
L 2938 0 
L 1159 1709 
L 1159 0 
L 581 0 
L 581 4863 
z
" transform="scale(0.015625)"/>
      <path id="DejaVuSans-49" d="M 628 4666 
L 1259 4666 
L 1259 0 
L 628 0 
L 628 4666 
z
" transform="scale(0.015625)"/>
      <path id="DejaVuSans-51" d="M 2522 4238 
Q 1834 4238 1429 3725 
Q 1025 3213 1025 2328 
Q 1025 1447 1429 934 
Q 1834 422 2522 422 
Q 3209 422 3611 934 
Q 4013 1447 4013 2328 
Q 4013 3213 3611 3725 
Q 3209 4238 2522 4238 
z
M 3406 84 
L 4238 -825 
L 3475 -825 
L 2784 -78 
Q 2681 -84 2626 -87 
Q 2572 -91 2522 -91 
Q 1538 -91 948 567 
Q 359 1225 359 2328 
Q 359 3434 948 4092 
Q 1538 4750 2522 4750 
Q 3503 4750 4090 4092 
Q 4678 3434 4678 2328 
Q 4678 1516 4351 937 
Q 4025 359 3406 84 
z
" transform="scale(0.015625)"/>
      <path id="DejaVuSans-52" d="M 2841 2188 
Q 3044 2119 3236 1894 
Q 3428 1669 3622 1275 
L 4263 0 
L 3584 0 
L 2988 1197 
Q 2756 1666 2539 1819 
Q 2322 1972 1947 1972 
L 1259 1972 
L 1259 0 
L 628 0 
L 628 4666 
L 2053 4666 
Q 2853 4666 3247 4331 
Q 3641 3997 3641 3322 
Q 3641 2881 3436 2590 
Q 3231 2300 2841 2188 
z
M 1259 4147 
L 1259 2491 
L 2053 2491 
Q 2509 2491 2742 2702 
Q 2975 2913 2975 3322 
Q 2975 3731 2742 3939 
Q 2509 4147 2053 4147 
L 1259 4147 
z
" transform="scale(0.015625)"/>
      <path id="DejaVuSans-34" d="M 2419 4116 
L 825 1625 
L 2419 1625 
L 2419 4116 
z
M 2253 4666 
L 3047 4666 
L 3047 1625 
L 3713 1625 
L 3713 1100 
L 3047 1100 
L 3047 0 
L 2419 0 
L 2419 1100 
L 313 1100 
L 313 1709 
L 2253 4666 
z
" transform="scale(0.015625)"/>
      <path id="DejaVuSans-39" d="M 703 97 
L 703 672 
Q 941 559 1184 500 
Q 1428 441 1663 441 
Q 2288 441 2617 861 
Q 2947 1281 2994 2138 
Q 2813 1869 2534 1725 
Q 2256 1581 1919 1581 
Q 1219 1581 811 2004 
Q 403 2428 403 3163 
Q 403 3881 828 4315 
Q 1253 4750 1959 4750 
Q 2769 4750 3195 4129 
Q 3622 3509 3622 2328 
Q 3622 1225 3098 567 
Q 2575 -91 1691 -91 
Q 1453 -91 1209 -44 
Q 966 3 703 97 
z
M 1959 2075 
Q 2384 2075 2632 2365 
Q 2881 2656 2881 3163 
Q 2881 3666 2632 3958 
Q 2384 4250 1959 4250 
Q 1534 4250 1286 3958 
Q 1038 3666 1038 3163 
Q 1038 2656 1286 2365 
Q 1534 2075 1959 2075 
z
" transform="scale(0.015625)"/>
      <path id="DejaVuSans-35" d="M 691 4666 
L 3169 4666 
L 3169 4134 
L 1269 4134 
L 1269 2991 
Q 1406 3038 1543 3061 
Q 1681 3084 1819 3084 
Q 2600 3084 3056 2656 
Q 3513 2228 3513 1497 
Q 3513 744 3044 326 
Q 2575 -91 1722 -91 
Q 1428 -91 1123 -41 
Q 819 9 494 109 
L 494 744 
Q 775 591 1075 516 
Q 1375 441 1709 441 
Q 2250 441 2565 725 
Q 2881 1009 2881 1497 
Q 2881 1984 2565 2268 
Q 2250 2553 1709 2553 
Q 1456 2553 1204 2497 
Q 953 2441 691 2322 
L 691 4666 
z
" transform="scale(0.015625)"/>
     </defs>
     <use xlink:href="#DejaVuSans-3b4"/>
     <use xlink:href="#DejaVuSans-20" transform="translate(61.181641 0)"/>
     <use xlink:href="#DejaVuSans-3d" transform="translate(92.96875 0)"/>
     <use xlink:href="#DejaVuSans-20" transform="translate(176.757812 0)"/>
     <use xlink:href="#DejaVuSans-64" transform="translate(208.544922 0)"/>
     <use xlink:href="#DejaVuSans-69" transform="translate(272.021484 0)"/>
     <use xlink:href="#DejaVuSans-66" transform="translate(299.804688 0)"/>
     <use xlink:href="#DejaVuSans-66" transform="translate(335.009766 0)"/>
     <use xlink:href="#DejaVuSans-65" transform="translate(370.214844 0)"/>
     <use xlink:href="#DejaVuSans-72" transform="translate(431.738281 0)"/>
     <use xlink:href="#DejaVuSans-65" transform="translate(470.601562 0)"/>
     <use xlink:href="#DejaVuSans-6e" transform="translate(532.125 0)"/>
     <use xlink:href="#DejaVuSans-74" transform="translate(595.503906 0)"/>
     <use xlink:href="#DejaVuSans-69" transform="translate(634.712891 0)"/>
     <use xlink:href="#DejaVuSans-61" transform="translate(662.496094 0)"/>
     <use xlink:href="#DejaVuSans-6c" transform="translate(723.775391 0)"/>
     <use xlink:href="#DejaVuSans-20" transform="translate(751.558594 0)"/>
     <use xlink:href="#DejaVuSans-6d" transform="translate(783.345703 0)"/>
     <use xlink:href="#DejaVuSans-61" transform="translate(880.757812 0)"/>
     <use xlink:href="#DejaVuSans-72" transform="translate(942.037109 0)"/>
     <use xlink:href="#DejaVuSans-67" transform="translate(981.400391 0)"/>
     <use xlink:href="#DejaVuSans-69" transform="translate(1044.876953 0)"/>
     <use xlink:href="#DejaVuSans-6e" transform="translate(1072.660156 0)"/>
     <use xlink:href="#DejaVuSans-20" transform="translate(1136.039062 0)"/>
     <use xlink:href="#DejaVuSans-28" transform="translate(1167.826172 0)"/>
     <use xlink:href="#DejaVuSans-64" transform="translate(1206.839844 0)"/>
     <use xlink:href="#DejaVuSans-65" transform="translate(1270.316406 0)"/>
     <use xlink:href="#DejaVuSans-66" transform="translate(1331.839844 0)"/>
     <use xlink:href="#DejaVuSans-61" transform="translate(1367.044922 0)"/>
     <use xlink:href="#DejaVuSans-75" transform="translate(1428.324219 0)"/>
     <use xlink:href="#DejaVuSans-6c" transform="translate(1491.703125 0)"/>
     <use xlink:href="#DejaVuSans-74" transform="translate(1519.486328 0)"/>
     <use xlink:href="#DejaVuSans-20" transform="translate(1558.695312 0)"/>
     <use xlink:href="#DejaVuSans-30" transform="translate(1590.482422 0)"/>
     <use xlink:href="#DejaVuSans-2e" transform="translate(1654.105469 0)"/>
     <use xlink:href="#DejaVuSans-32" transform="translate(1685.892578 0)"/>
     <use xlink:href="#DejaVuSans-29" transform="translate(1749.515625 0)"/>
     <use xlink:href="#DejaVuSans-2e" transform="translate(1788.529297 0)"/>
     <use xlink:href="#DejaVuSans-20" transform="translate(1820.316406 0)"/>
     <use xlink:href="#DejaVuSans-3c3" transform="translate(1852.103516 0)"/>
     <use xlink:href="#DejaVuSans-5f" transform="translate(1915.482422 0)"/>
     <use xlink:href="#DejaVuSans-394" transform="translate(1965.482422 0)"/>
     <use xlink:href="#DejaVuSans-20" transform="translate(2033.890625 0)"/>
     <use xlink:href="#DejaVuSans-3d" transform="translate(2065.677734 0)"/>
     <use xlink:href="#DejaVuSans-20" transform="translate(2149.466797 0)"/>
     <use xlink:href="#DejaVuSans-221a" transform="translate(2181.253906 0)"/>
     <use xlink:href="#DejaVuSans-28" transform="translate(2244.974609 0)"/>
     <use xlink:href="#DejaVuSans-3c3" transform="translate(2283.988281 0)"/>
     <use xlink:href="#DejaVuSans-5f" transform="translate(2347.367188 0)"/>
     <use xlink:href="#DejaVuSans-74" transform="translate(2397.367188 0)"/>
     <use xlink:href="#DejaVuSans-b2" transform="translate(2436.576172 0)"/>
     <use xlink:href="#DejaVuSans-20" transform="translate(2476.664062 0)"/>
     <use xlink:href="#DejaVuSans-2b" transform="translate(2508.451172 0)"/>
     <use xlink:href="#DejaVuSans-20" transform="translate(2592.240234 0)"/>
     <use xlink:href="#DejaVuSans-3c3" transform="translate(2624.027344 0)"/>
     <use xlink:href="#DejaVuSans-5f" transform="translate(2687.40625 0)"/>
     <use xlink:href="#DejaVuSans-6e" transform="translate(2737.40625 0)"/>
     <use xlink:href="#DejaVuSans-b2" transform="translate(2800.785156 0)"/>
     <use xlink:href="#DejaVuSans-29" transform="translate(2840.873047 0)"/>
     <use xlink:href="#DejaVuSans-20" transform="translate(2879.886719 0)"/>
     <use xlink:href="#DejaVuSans-77" transform="translate(2911.673828 0)"/>
     <use xlink:href="#DejaVuSans-69" transform="translate(2993.460938 0)"/>
     <use xlink:href="#DejaVuSans-74" transform="translate(3021.244141 0)"/>
     <use xlink:href="#DejaVuSans-68" transform="translate(3060.453125 0)"/>
     <use xlink:href="#DejaVuSans-20" transform="translate(3123.832031 0)"/>
     <use xlink:href="#DejaVuSans-3c3" transform="translate(3155.619141 0)"/>
     <use xlink:href="#DejaVuSans-5f" transform="translate(3218.998047 0)"/>
     <use xlink:href="#DejaVuSans-6b" transform="translate(3268.998047 0)"/>
     <use xlink:href="#DejaVuSans-20" transform="translate(3326.908203 0)"/>
     <use xlink:href="#DejaVuSans-3d" transform="translate(3358.695312 0)"/>
     <use xlink:href="#DejaVuSans-20" transform="translate(3442.484375 0)"/>
     <use xlink:href="#DejaVuSans-49" transform="translate(3474.271484 0)"/>
     <use xlink:href="#DejaVuSans-51" transform="translate(3503.763672 0)"/>
     <use xlink:href="#DejaVuSans-52" transform="translate(3582.474609 0)"/>
     <use xlink:href="#DejaVuSans-5f" transform="translate(3651.957031 0)"/>
     <use xlink:href="#DejaVuSans-6b" transform="translate(3701.957031 0)"/>
     <use xlink:href="#DejaVuSans-20" transform="translate(3759.867188 0)"/>
     <use xlink:href="#DejaVuSans-2f" transform="translate(3791.654297 0)"/>
     <use xlink:href="#DejaVuSans-20" transform="translate(3825.345703 0)"/>
     <use xlink:href="#DejaVuSans-31" transform="translate(3857.132812 0)"/>
     <use xlink:href="#DejaVuSans-2e" transform="translate(3920.755859 0)"/>
     <use xlink:href="#DejaVuSans-33" transform="translate(3952.542969 0)"/>
     <use xlink:href="#DejaVuSans-34" transform="translate(4016.166016 0)"/>
     <use xlink:href="#DejaVuSans-39" transform="translate(4079.789062 0)"/>
     <use xlink:href="#DejaVuSans-20" transform="translate(4143.412109 0)"/>
     <use xlink:href="#DejaVuSans-28" transform="translate(4175.199219 0)"/>
     <use xlink:href="#DejaVuSans-66" transform="translate(4214.212891 0)"/>
     <use xlink:href="#DejaVuSans-6c" transform="translate(4249.417969 0)"/>
     <use xlink:href="#DejaVuSans-6f" transform="translate(4277.201172 0)"/>
     <use xlink:href="#DejaVuSans-6f" transform="translate(4338.382812 0)"/>
     <use xlink:href="#DejaVuSans-72" transform="translate(4399.564453 0)"/>
     <use xlink:href="#DejaVuSans-20" transform="translate(4440.677734 0)"/>
     <use xlink:href="#DejaVuSans-30" transform="translate(4472.464844 0)"/>
     <use xlink:href="#DejaVuSans-2e" transform="translate(4536.087891 0)"/>
     <use xlink:href="#DejaVuSans-30" transform="translate(4567.875 0)"/>
     <use xlink:href="#DejaVuSans-35" transform="translate(4631.498047 0)"/>
     <use xlink:href="#DejaVuSans-29" transform="translate(4695.121094 0)"/>
     <use xlink:href="#DejaVuSans-2e" transform="translate(4734.134766 0)"/>
    </g>
   </g>
  </g>
 </g>
 <defs>
  <clipPath id="pd4a2252f03">
   <rect x="7.2" y="7.2" width="698.4" height="338.4"/>
  </clipPath>
 </defs>
</svg>
